<svg xmlns="http://www.w3.org/2000/svg" xmlns:xlink="http://www.w3.org/1999/xlink" contentStyleType="text/css" data-diagram-type="DESCRIPTION" height="1073px" preserveAspectRatio="none" style="width:3205px;height:1073px;background:#FFFFFF;" version="1.1" viewBox="0 0 3205 1073" width="3205px" zoomAndPan="magnify"><defs/><g><!--cluster Workflow 'main'--><g class="cluster" data-entity="Workflow 'main'" data-source-line="4" data-uid="ent0002" id="cluster_Workflow 'main'"><polygon fill="none" points="16,16,26,6,1586,6,1586,1046.5,1576,1056.5,16,1056.5,16,16" style="stroke:#181818;stroke-width:1;"/><line style="stroke:#181818;stroke-width:1;" x1="1576" x2="1586" y1="16" y2="6"/><line style="stroke:#181818;stroke-width:1;" x1="16" x2="1576" y1="16" y2="16"/><line style="stroke:#181818;stroke-width:1;" x1="1576" x2="1576" y1="16" y2="1056.5"/><text fill="#000000" font-family="sans-serif" font-size="14" font-weight="bold" lengthAdjust="spacing" textLength="126.9639" x="733.5181" y="31.9951">Workflow 'main'</text></g><!--cluster main--><g class="cluster" data-entity="main" data-source-line="5" data-uid="ent0003" id="cluster_main"><rect fill="none" height="204" rx="2.5" ry="2.5" style="stroke:#181818;stroke-width:1;" width="966.5" x="64.5" y="72"/><rect fill="none" height="10" style="stroke:#181818;stroke-width:1;" width="15" x="1011" y="77"/><rect fill="none" height="2" style="stroke:#181818;stroke-width:1;" width="4" x="1009" y="79"/><rect fill="none" height="2" style="stroke:#181818;stroke-width:1;" width="4" x="1009" y="83"/><text fill="#000000" font-family="sans-serif" font-size="14" font-weight="bold" lengthAdjust="spacing" textLength="38.8008" x="528.3496" y="97.9951">main</text></g><!--cluster main_stage_in_0--><g class="cluster" data-entity="main_stage_in_0" data-source-line="35" data-uid="ent0016" id="cluster_main_stage_in_0"><rect fill="none" height="192" rx="2.5" ry="2.5" style="stroke:#181818;stroke-width:1;" width="131.5" x="1098.5" y="180"/><rect fill="none" height="10" style="stroke:#181818;stroke-width:1;" width="15" x="1210" y="185"/><rect fill="none" height="2" style="stroke:#181818;stroke-width:1;" width="4" x="1208" y="187"/><rect fill="none" height="2" style="stroke:#181818;stroke-width:1;" width="4" x="1208" y="191"/><text fill="#000000" font-family="sans-serif" font-size="14" font-weight="bold" lengthAdjust="spacing" textLength="82.4961" x="1123.002" y="205.9951">stage_in_0</text></g><!--cluster main_app--><g class="cluster" data-entity="main_app" data-source-line="49" data-uid="ent0022" id="cluster_main_app"><rect fill="none" height="183.5" rx="2.5" ry="2.5" style="stroke:#181818;stroke-width:1;" width="198" x="1141" y="520"/><rect fill="none" height="10" style="stroke:#181818;stroke-width:1;" width="15" x="1319" y="525"/><rect fill="none" height="2" style="stroke:#181818;stroke-width:1;" width="4" x="1317" y="527"/><rect fill="none" height="2" style="stroke:#181818;stroke-width:1;" width="4" x="1317" y="531"/><text fill="#000000" font-family="sans-serif" font-size="14" font-weight="bold" lengthAdjust="spacing" textLength="29.4902" x="1225.2549" y="545.9951">app</text></g><!--cluster main_stage_out_0--><g class="cluster" data-entity="main_stage_out_0" data-source-line="69" data-uid="ent0032" id="cluster_main_stage_out_0"><rect fill="none" height="179" rx="2.5" ry="2.5" style="stroke:#181818;stroke-width:1;" width="731.5" x="811.5" y="827.5"/><rect fill="none" height="10" style="stroke:#181818;stroke-width:1;" width="15" x="1523" y="832.5"/><rect fill="none" height="2" style="stroke:#181818;stroke-width:1;" width="4" x="1521" y="834.5"/><rect fill="none" height="2" style="stroke:#181818;stroke-width:1;" width="4" x="1521" y="838.5"/><text fill="#000000" font-family="sans-serif" font-size="14" font-weight="bold" lengthAdjust="spacing" textLength="94.0078" x="1130.2461" y="853.4951">stage_out_0</text></g><!--cluster CommandLineTool 'my-asthonishing-stage-in'--><g class="cluster" data-entity="CommandLineTool 'my-asthonishing-stage-in'" data-source-line="100" data-uid="ent0048" id="cluster_CommandLineTool 'my-asthonishing-stage-in'"><polygon fill="none" points="1610,116,1620,106,2046,106,2046,412,2036,422,1610,422,1610,116" style="stroke:#181818;stroke-width:1;"/><line style="stroke:#181818;stroke-width:1;" x1="2036" x2="2046" y1="116" y2="106"/><line style="stroke:#181818;stroke-width:1;" x1="1610" x2="2036" y1="116" y2="116"/><line style="stroke:#181818;stroke-width:1;" x1="2036" x2="2036" y1="116" y2="422"/><text fill="#000000" font-family="sans-serif" font-size="14" font-weight="bold" lengthAdjust="spacing" textLength="360.5273" x="1643.7363" y="131.9951">CommandLineTool 'my-asthonishing-stage-in'</text></g><!--cluster my_asthonishing_stage_in--><g class="cluster" data-entity="my_asthonishing_stage_in" data-source-line="101" data-uid="ent0049" id="cluster_my_asthonishing_stage_in"><rect fill="none" height="192" rx="2.5" ry="2.5" style="stroke:#181818;stroke-width:1;" width="268" x="1653" y="180"/><rect fill="none" height="10" style="stroke:#181818;stroke-width:1;" width="15" x="1901" y="185"/><rect fill="none" height="2" style="stroke:#181818;stroke-width:1;" width="4" x="1899" y="187"/><rect fill="none" height="2" style="stroke:#181818;stroke-width:1;" width="4" x="1899" y="191"/><text fill="#000000" font-family="sans-serif" font-size="14" font-weight="bold" lengthAdjust="spacing" textLength="201.8105" x="1686.0947" y="205.9951">my-asthonishing-stage-in</text></g><!--cluster Workflow 'pattern-1'--><g class="cluster" data-entity="Workflow 'pattern-1'" data-source-line="115" data-uid="ent0053" id="cluster_Workflow 'pattern-1'"><polygon fill="none" points="1610,456,1620,446,2062,446,2062,867.5,2052,877.5,1610,877.5,1610,456" style="stroke:#181818;stroke-width:1;"/><line style="stroke:#181818;stroke-width:1;" x1="2052" x2="2062" y1="456" y2="446"/><line style="stroke:#181818;stroke-width:1;" x1="1610" x2="2052" y1="456" y2="456"/><line style="stroke:#181818;stroke-width:1;" x1="2052" x2="2052" y1="456" y2="877.5"/><text fill="#000000" font-family="sans-serif" font-size="14" font-weight="bold" lengthAdjust="spacing" textLength="162.9346" x="1750.5327" y="471.9951">Workflow 'pattern-1'</text></g><!--cluster pattern_1--><g class="cluster" data-entity="pattern_1" data-source-line="116" data-uid="ent0054" id="cluster_pattern_1"><rect fill="none" height="183.5" rx="2.5" ry="2.5" style="stroke:#181818;stroke-width:1;" width="198" x="1630" y="520"/><rect fill="none" height="10" style="stroke:#181818;stroke-width:1;" width="15" x="1808" y="525"/><rect fill="none" height="2" style="stroke:#181818;stroke-width:1;" width="4" x="1806" y="527"/><rect fill="none" height="2" style="stroke:#181818;stroke-width:1;" width="4" x="1806" y="531"/><text fill="#000000" font-family="sans-serif" font-size="14" font-weight="bold" lengthAdjust="spacing" textLength="74.7715" x="1691.6143" y="545.9951">pattern-1</text></g><!--cluster pattern_1_step--><g class="cluster" data-entity="pattern_1_step" data-source-line="132" data-uid="ent0060" id="cluster_pattern_1_step"><rect fill="none" height="211.5" rx="2.5" ry="2.5" style="stroke:#181818;stroke-width:1;" width="177" x="1865" y="616"/><rect fill="none" height="10" style="stroke:#181818;stroke-width:1;" width="15" x="2022" y="621"/><rect fill="none" height="2" style="stroke:#181818;stroke-width:1;" width="4" x="2020" y="623"/><rect fill="none" height="2" style="stroke:#181818;stroke-width:1;" width="4" x="2020" y="627"/><text fill="#000000" font-family="sans-serif" font-size="14" font-weight="bold" lengthAdjust="spacing" textLength="34.542" x="1936.229" y="641.9951">step</text></g><!--cluster CommandLineTool 'clt'--><g class="cluster" data-entity="CommandLineTool 'clt'" data-source-line="154" data-uid="ent0070" id="cluster_CommandLineTool 'clt'"><polygon fill="none" points="2934,564,2944,554,3188,554,3188,867.5,3178,877.5,2934,877.5,2934,564" style="stroke:#181818;stroke-width:1;"/><line style="stroke:#181818;stroke-width:1;" x1="3178" x2="3188" y1="564" y2="554"/><line style="stroke:#181818;stroke-width:1;" x1="2934" x2="3178" y1="564" y2="564"/><line style="stroke:#181818;stroke-width:1;" x1="3178" x2="3178" y1="564" y2="877.5"/><text fill="#000000" font-family="sans-serif" font-size="14" font-weight="bold" lengthAdjust="spacing" textLength="178.5068" x="2967.7466" y="579.9951">CommandLineTool 'clt'</text></g><!--cluster clt--><g class="cluster" data-entity="clt" data-source-line="155" data-uid="ent0071" id="cluster_clt"><rect fill="none" height="211.5" rx="2.5" ry="2.5" style="stroke:#181818;stroke-width:1;" width="177" x="2954" y="616"/><rect fill="none" height="10" style="stroke:#181818;stroke-width:1;" width="15" x="3111" y="621"/><rect fill="none" height="2" style="stroke:#181818;stroke-width:1;" width="4" x="3109" y="623"/><rect fill="none" height="2" style="stroke:#181818;stroke-width:1;" width="4" x="3109" y="627"/><text fill="#000000" font-family="sans-serif" font-size="14" font-weight="bold" lengthAdjust="spacing" textLength="19.79" x="3032.605" y="641.9951">clt</text></g><!--cluster CommandLineTool 'my-super-stage-out'--><g class="cluster" data-entity="CommandLineTool 'my-super-stage-out'" data-source-line="173" data-uid="ent0077" id="cluster_CommandLineTool 'my-super-stage-out'"><polygon fill="none" points="2086,763.5,2096,753.5,2910,753.5,2910,1046.5,2900,1056.5,2086,1056.5,2086,763.5" style="stroke:#181818;stroke-width:1;"/><line style="stroke:#181818;stroke-width:1;" x1="2900" x2="2910" y1="763.5" y2="753.5"/><line style="stroke:#181818;stroke-width:1;" x1="2086" x2="2900" y1="763.5" y2="763.5"/><line style="stroke:#181818;stroke-width:1;" x1="2900" x2="2900" y1="763.5" y2="1056.5"/><text fill="#000000" font-family="sans-serif" font-size="14" font-weight="bold" lengthAdjust="spacing" textLength="314.8496" x="2336.5752" y="779.4951">CommandLineTool 'my-super-stage-out'</text></g><!--cluster my_super_stage_out--><g class="cluster" data-entity="my_super_stage_out" data-source-line="174" data-uid="ent0078" id="cluster_my_super_stage_out"><rect fill="none" height="179" rx="2.5" ry="2.5" style="stroke:#181818;stroke-width:1;" width="739.5" x="2129" y="827.5"/><rect fill="none" height="10" style="stroke:#181818;stroke-width:1;" width="15" x="2848.5" y="832.5"/><rect fill="none" height="2" style="stroke:#181818;stroke-width:1;" width="4" x="2846.5" y="834.5"/><rect fill="none" height="2" style="stroke:#181818;stroke-width:1;" width="4" x="2846.5" y="838.5"/><text fill="#000000" font-family="sans-serif" font-size="14" font-weight="bold" lengthAdjust="spacing" textLength="156.1328" x="2420.6836" y="853.4951">my-super-stage-out</text></g><g class="entity" data-entity="main_another_input" data-source-line="7" data-uid="ent0004" id="entity_main_another_input"><text fill="#000000" font-family="sans-serif" font-size="14" lengthAdjust="spacing" textLength="97.7607" x="33.6196" y="50.6982">another_input</text><rect fill="#F1F1F1" height="12" style="stroke:#181818;stroke-width:1.5;" width="12" x="76.5" y="66"/></g><g class="entity" data-entity="main_aoi" data-source-line="9" data-uid="ent0005" id="entity_main_aoi"><text fill="#000000" font-family="sans-serif" font-size="14" lengthAdjust="spacing" textLength="21.0342" x="290.4829" y="50.6982">aoi</text><rect fill="#F1F1F1" height="12" style="stroke:#181818;stroke-width:1.5;" width="12" x="295" y="66"/></g><g class="entity" data-entity="main_epsg" data-source-line="11" data-uid="ent0006" id="entity_main_epsg"><text fill="#000000" font-family="sans-serif" font-size="14" lengthAdjust="spacing" textLength="33.6807" x="331.1597" y="50.6982">epsg</text><rect fill="#F1F1F1" height="12" style="stroke:#181818;stroke-width:1.5;" width="12" x="342" y="66"/></g><g class="entity" data-entity="main_bands" data-source-line="13" data-uid="ent0007" id="entity_main_bands"><text fill="#000000" font-family="sans-serif" font-size="14" lengthAdjust="spacing" textLength="42.5195" x="394.7402" y="50.6982">bands</text><rect fill="#F1F1F1" height="12" style="stroke:#181818;stroke-width:1.5;" width="12" x="410" y="66"/></g><g class="entity" data-entity="main_item" data-source-line="15" data-uid="ent0008" id="entity_main_item"><text fill="#000000" font-family="sans-serif" font-size="14" lengthAdjust="spacing" textLength="31.6299" x="139.1851" y="50.6982">item</text><rect fill="#F1F1F1" height="12" style="stroke:#181818;stroke-width:1.5;" width="12" x="149" y="66"/></g><g class="entity" data-entity="main_s3_bucket" data-source-line="17" data-uid="ent0009" id="entity_main_s3_bucket"><text fill="#000000" font-family="sans-serif" font-size="14" lengthAdjust="spacing" textLength="70.8682" x="471.5659" y="50.6982">s3_bucket</text><rect fill="#F1F1F1" height="12" style="stroke:#181818;stroke-width:1.5;" width="12" x="501" y="66"/></g><g class="entity" data-entity="main_sub_path" data-source-line="19" data-uid="ent0010" id="entity_main_sub_path"><text fill="#000000" font-family="sans-serif" font-size="14" lengthAdjust="spacing" textLength="63.8818" x="563.5591" y="50.6982">sub_path</text><rect fill="#F1F1F1" height="12" style="stroke:#181818;stroke-width:1.5;" width="12" x="589.5" y="66"/></g><g class="entity" data-entity="main_aws_access_key_id" data-source-line="21" data-uid="ent0011" id="entity_main_aws_access_key_id"><text fill="#000000" font-family="sans-serif" font-size="14" lengthAdjust="spacing" textLength="133.2803" x="654.3599" y="50.6982">aws_access_key_id</text><rect fill="#F1F1F1" height="12" style="stroke:#181818;stroke-width:1.5;" width="12" x="715" y="66"/></g><g class="entity" data-entity="main_aws_secret_access_key" data-source-line="23" data-uid="ent0012" id="entity_main_aws_secret_access_key"><text fill="#000000" font-family="sans-serif" font-size="14" lengthAdjust="spacing" textLength="163.9668" x="802.0166" y="50.6982">aws_secret_access_key</text><rect fill="#F1F1F1" height="12" style="stroke:#181818;stroke-width:1.5;" width="12" x="878" y="66"/></g><g class="entity" data-entity="main_region_name" data-source-line="25" data-uid="ent0013" id="entity_main_region_name"><text fill="#000000" font-family="sans-serif" font-size="14" lengthAdjust="spacing" textLength="91.2871" x="967.3564" y="50.6982">region_name</text><rect fill="#F1F1F1" height="12" style="stroke:#181818;stroke-width:1.5;" width="12" x="1007" y="66"/></g><g class="entity" data-entity="main_endpoint_url" data-source-line="27" data-uid="ent0014" id="entity_main_endpoint_url"><text fill="#000000" font-family="sans-serif" font-size="14" lengthAdjust="spacing" textLength="87.5957" x="188.7021" y="50.6982">endpoint_url</text><rect fill="#F1F1F1" height="12" style="stroke:#181818;stroke-width:1.5;" width="12" x="226.5" y="66"/></g><g class="entity" data-entity="main_stac_catalog" data-source-line="30" data-uid="ent0015" id="entity_main_stac_catalog"><text fill="#000000" font-family="sans-serif" font-size="14" lengthAdjust="spacing" textLength="87.7461" x="515.627" y="294.9951">stac_catalog</text><rect fill="#F1F1F1" height="12" style="stroke:#181818;stroke-width:1.5;" width="12" x="553.5" y="270"/></g><g class="entity" data-entity="main_stage_in_0_reference" data-source-line="37" data-uid="ent0017" id="entity_main_stage_in_0_reference"><text fill="#000000" font-family="sans-serif" font-size="14" lengthAdjust="spacing" textLength="67.4639" x="1178.2681" y="158.6982">reference</text><rect fill="#F1F1F1" height="12" style="stroke:#181818;stroke-width:1.5;" width="12" x="1206" y="174"/></g><g class="entity" data-entity="main_stage_in_0_another_input" data-source-line="40" data-uid="ent0019" id="entity_main_stage_in_0_another_input"><text fill="#000000" font-family="sans-serif" font-size="14" lengthAdjust="spacing" textLength="97.7607" x="1067.6196" y="158.6982">another_input</text><rect fill="#F1F1F1" height="12" style="stroke:#181818;stroke-width:1.5;" width="12" x="1110.5" y="174"/></g><g class="entity" data-entity="main_stage_in_0_staged" data-source-line="45" data-uid="ent0021" id="entity_main_stage_in_0_staged"><text fill="#000000" font-family="sans-serif" font-size="14" lengthAdjust="spacing" textLength="47.749" x="1135.1255" y="390.9951">staged</text><rect fill="#F1F1F1" height="12" style="stroke:#181818;stroke-width:1.5;" width="12" x="1153" y="366"/></g><g class="entity" data-entity="main_app_aoi" data-source-line="51" data-uid="ent0023" id="entity_main_app_aoi"><text fill="#000000" font-family="sans-serif" font-size="14" lengthAdjust="spacing" textLength="21.0342" x="1195.4829" y="498.6982">aoi</text><rect fill="#F1F1F1" height="12" style="stroke:#181818;stroke-width:1.5;" width="12" x="1200" y="514"/></g><g class="entity" data-entity="main_app_epsg" data-source-line="54" data-uid="ent0025" id="entity_main_app_epsg"><text fill="#000000" font-family="sans-serif" font-size="14" lengthAdjust="spacing" textLength="33.6807" x="1236.1597" y="498.6982">epsg</text><rect fill="#F1F1F1" height="12" style="stroke:#181818;stroke-width:1.5;" width="12" x="1247" y="514"/></g><g class="entity" data-entity="main_app_bands" data-source-line="57" data-uid="ent0027" id="entity_main_app_bands"><text fill="#000000" font-family="sans-serif" font-size="14" lengthAdjust="spacing" textLength="42.5195" x="1299.7402" y="498.6982">bands</text><rect fill="#F1F1F1" height="12" style="stroke:#181818;stroke-width:1.5;" width="12" x="1315" y="514"/></g><g class="entity" data-entity="main_app_item" data-source-line="60" data-uid="ent0029" id="entity_main_app_item"><text fill="#000000" font-family="sans-serif" font-size="14" lengthAdjust="spacing" textLength="31.6299" x="1143.1851" y="498.6982">item</text><rect fill="#F1F1F1" height="12" style="stroke:#181818;stroke-width:1.5;" width="12" x="1153" y="514"/></g><g class="entity" data-entity="main_app_stac_catalog" data-source-line="65" data-uid="ent0031" id="entity_main_app_stac_catalog"><text fill="#000000" font-family="sans-serif" font-size="14" lengthAdjust="spacing" textLength="87.7461" x="1148.627" y="722.4951">stac_catalog</text><rect fill="#F1F1F1" height="12" style="stroke:#181818;stroke-width:1.5;" width="12" x="1186.5" y="697.5"/></g><g class="entity" data-entity="main_stage_out_0_s3_bucket" data-source-line="71" data-uid="ent0033" id="entity_main_stage_out_0_s3_bucket"><text fill="#000000" font-family="sans-serif" font-size="14" lengthAdjust="spacing" textLength="70.8682" x="983.5659" y="806.1982">s3_bucket</text><rect fill="#F1F1F1" height="12" style="stroke:#181818;stroke-width:1.5;" width="12" x="1013" y="821.5"/></g><g class="entity" data-entity="main_stage_out_0_sub_path" data-source-line="74" data-uid="ent0035" id="entity_main_stage_out_0_sub_path"><text fill="#000000" font-family="sans-serif" font-size="14" lengthAdjust="spacing" textLength="63.8818" x="1075.5591" y="806.1982">sub_path</text><rect fill="#F1F1F1" height="12" style="stroke:#181818;stroke-width:1.5;" width="12" x="1101.5" y="821.5"/></g><g class="entity" data-entity="main_stage_out_0_aws_access_key_id" data-source-line="77" data-uid="ent0037" id="entity_main_stage_out_0_aws_access_key_id"><text fill="#000000" font-family="sans-serif" font-size="14" lengthAdjust="spacing" textLength="133.2803" x="1166.3599" y="806.1982">aws_access_key_id</text><rect fill="#F1F1F1" height="12" style="stroke:#181818;stroke-width:1.5;" width="12" x="1227" y="821.5"/></g><g class="entity" data-entity="main_stage_out_0_aws_secret_access_key" data-source-line="80" data-uid="ent0039" id="entity_main_stage_out_0_aws_secret_access_key"><text fill="#000000" font-family="sans-serif" font-size="14" lengthAdjust="spacing" textLength="163.9668" x="1314.0166" y="806.1982">aws_secret_access_key</text><rect fill="#F1F1F1" height="12" style="stroke:#181818;stroke-width:1.5;" width="12" x="1390" y="821.5"/></g><g class="entity" data-entity="main_stage_out_0_region_name" data-source-line="83" data-uid="ent0041" id="entity_main_stage_out_0_region_name"><text fill="#000000" font-family="sans-serif" font-size="14" lengthAdjust="spacing" textLength="91.2871" x="1479.3564" y="806.1982">region_name</text><rect fill="#F1F1F1" height="12" style="stroke:#181818;stroke-width:1.5;" width="12" x="1519" y="821.5"/></g><g class="entity" data-entity="main_stage_out_0_endpoint_url" data-source-line="86" data-uid="ent0043" id="entity_main_stage_out_0_endpoint_url"><text fill="#000000" font-family="sans-serif" font-size="14" lengthAdjust="spacing" textLength="87.5957" x="883.7021" y="806.1982">endpoint_url</text><rect fill="#F1F1F1" height="12" style="stroke:#181818;stroke-width:1.5;" width="12" x="921.5" y="821.5"/></g><g class="entity" data-entity="main_stage_out_0_stac_catalog" data-source-line="89" data-uid="ent0045" id="entity_main_stage_out_0_stac_catalog"><text fill="#000000" font-family="sans-serif" font-size="14" lengthAdjust="spacing" textLength="87.7461" x="785.627" y="806.1982">stac_catalog</text><rect fill="#F1F1F1" height="12" style="stroke:#181818;stroke-width:1.5;" width="12" x="823.5" y="821.5"/></g><g class="entity" data-entity="main_stage_out_0_s3_catalog_output" data-source-line="94" data-uid="ent0047" id="entity_main_stage_out_0_s3_catalog_output"><text fill="#000000" font-family="sans-serif" font-size="14" lengthAdjust="spacing" textLength="128.0645" x="799.4678" y="1025.4951">s3_catalog_output</text><rect fill="#F1F1F1" height="12" style="stroke:#181818;stroke-width:1.5;" width="12" x="857.5" y="1000.5"/></g><g class="entity" data-entity="my_asthonishing_stage_in_reference" data-source-line="103" data-uid="ent0050" id="entity_my_asthonishing_stage_in_reference"><text fill="#000000" font-family="sans-serif" font-size="14" lengthAdjust="spacing" textLength="67.4639" x="1637.2681" y="158.6982">reference</text><rect fill="#F1F1F1" height="12" style="stroke:#181818;stroke-width:1.5;" width="12" x="1665" y="174"/></g><g class="entity" data-entity="my_asthonishing_stage_in_another_input" data-source-line="105" data-uid="ent0051" id="entity_my_asthonishing_stage_in_another_input"><text fill="#000000" font-family="sans-serif" font-size="14" lengthAdjust="spacing" textLength="97.7607" x="1724.6196" y="158.6982">another_input</text><rect fill="#F1F1F1" height="12" style="stroke:#181818;stroke-width:1.5;" width="12" x="1767.5" y="174"/></g><g class="entity" data-entity="my_asthonishing_stage_in_staged" data-source-line="108" data-uid="ent0052" id="entity_my_asthonishing_stage_in_staged"><text fill="#000000" font-family="sans-serif" font-size="14" lengthAdjust="spacing" textLength="47.749" x="1743.1255" y="390.9951">staged</text><rect fill="#F1F1F1" height="12" style="stroke:#181818;stroke-width:1.5;" width="12" x="1761" y="366"/></g><g class="entity" data-entity="pattern_1_aoi" data-source-line="118" data-uid="ent0055" id="entity_pattern_1_aoi"><text fill="#000000" font-family="sans-serif" font-size="14" lengthAdjust="spacing" textLength="21.0342" x="1684.4829" y="498.6982">aoi</text><rect fill="#F1F1F1" height="12" style="stroke:#181818;stroke-width:1.5;" width="12" x="1689" y="514"/></g><g class="entity" data-entity="pattern_1_epsg" data-source-line="120" data-uid="ent0056" id="entity_pattern_1_epsg"><text fill="#000000" font-family="sans-serif" font-size="14" lengthAdjust="spacing" textLength="33.6807" x="1725.1597" y="498.6982">epsg</text><rect fill="#F1F1F1" height="12" style="stroke:#181818;stroke-width:1.5;" width="12" x="1736" y="514"/></g><g class="entity" data-entity="pattern_1_bands" data-source-line="122" data-uid="ent0057" id="entity_pattern_1_bands"><text fill="#000000" font-family="sans-serif" font-size="14" lengthAdjust="spacing" textLength="42.5195" x="1788.7402" y="498.6982">bands</text><rect fill="#F1F1F1" height="12" style="stroke:#181818;stroke-width:1.5;" width="12" x="1804" y="514"/></g><g class="entity" data-entity="pattern_1_item" data-source-line="124" data-uid="ent0058" id="entity_pattern_1_item"><text fill="#000000" font-family="sans-serif" font-size="14" lengthAdjust="spacing" textLength="31.6299" x="1632.1851" y="498.6982">item</text><rect fill="#F1F1F1" height="12" style="stroke:#181818;stroke-width:1.5;" width="12" x="1642" y="514"/></g><g class="entity" data-entity="pattern_1_stac_catalog" data-source-line="127" data-uid="ent0059" id="entity_pattern_1_stac_catalog"><text fill="#000000" font-family="sans-serif" font-size="14" lengthAdjust="spacing" textLength="87.7461" x="1714.627" y="722.4951">stac_catalog</text><rect fill="#F1F1F1" height="12" style="stroke:#181818;stroke-width:1.5;" width="12" x="1752.5" y="697.5"/></g><g class="entity" data-entity="pattern_1_step_item" data-source-line="134" data-uid="ent0061" id="entity_pattern_1_step_item"><text fill="#000000" font-family="sans-serif" font-size="14" lengthAdjust="spacing" textLength="31.6299" x="1867.1851" y="594.6982">item</text><rect fill="#F1F1F1" height="12" style="stroke:#181818;stroke-width:1.5;" width="12" x="1877" y="610"/></g><g class="entity" data-entity="pattern_1_step_aoi" data-source-line="137" data-uid="ent0063" id="entity_pattern_1_step_aoi"><text fill="#000000" font-family="sans-serif" font-size="14" lengthAdjust="spacing" textLength="21.0342" x="1919.4829" y="594.6982">aoi</text><rect fill="#F1F1F1" height="12" style="stroke:#181818;stroke-width:1.5;" width="12" x="1924" y="610"/></g><g class="entity" data-entity="pattern_1_step_epsg" data-source-line="140" data-uid="ent0065" id="entity_pattern_1_step_epsg"><text fill="#000000" font-family="sans-serif" font-size="14" lengthAdjust="spacing" textLength="33.6807" x="1960.1597" y="594.6982">epsg</text><rect fill="#F1F1F1" height="12" style="stroke:#181818;stroke-width:1.5;" width="12" x="1971" y="610"/></g><g class="entity" data-entity="pattern_1_step_band" data-source-line="143" data-uid="ent0067" id="entity_pattern_1_step_band"><text fill="#000000" font-family="sans-serif" font-size="14" lengthAdjust="spacing" textLength="35.2256" x="2006.3872" y="594.6982">band</text><rect fill="#F1F1F1" height="12" style="stroke:#181818;stroke-width:1.5;" width="12" x="2018" y="610"/></g><g class="entity" data-entity="pattern_1_step_stac_catalog" data-source-line="148" data-uid="ent0069" id="entity_pattern_1_step_stac_catalog"><text fill="#000000" font-family="sans-serif" font-size="14" lengthAdjust="spacing" textLength="85.7979" x="1909.1011" y="846.4951">stac-catalog</text><rect fill="#F1F1F1" height="12" style="stroke:#181818;stroke-width:1.5;" width="12" x="1946" y="821.5"/></g><g class="entity" data-entity="clt_item" data-source-line="157" data-uid="ent0072" id="entity_clt_item"><text fill="#000000" font-family="sans-serif" font-size="14" lengthAdjust="spacing" textLength="31.6299" x="2956.1851" y="594.6982">item</text><rect fill="#F1F1F1" height="12" style="stroke:#181818;stroke-width:1.5;" width="12" x="2966" y="610"/></g><g class="entity" data-entity="clt_aoi" data-source-line="159" data-uid="ent0073" id="entity_clt_aoi"><text fill="#000000" font-family="sans-serif" font-size="14" lengthAdjust="spacing" textLength="21.0342" x="3008.4829" y="594.6982">aoi</text><rect fill="#F1F1F1" height="12" style="stroke:#181818;stroke-width:1.5;" width="12" x="3013" y="610"/></g><g class="entity" data-entity="clt_epsg" data-source-line="161" data-uid="ent0074" id="entity_clt_epsg"><text fill="#000000" font-family="sans-serif" font-size="14" lengthAdjust="spacing" textLength="33.6807" x="3049.1597" y="594.6982">epsg</text><rect fill="#F1F1F1" height="12" style="stroke:#181818;stroke-width:1.5;" width="12" x="3060" y="610"/></g><g class="entity" data-entity="clt_band" data-source-line="163" data-uid="ent0075" id="entity_clt_band"><text fill="#000000" font-family="sans-serif" font-size="14" lengthAdjust="spacing" textLength="35.2256" x="3095.3872" y="594.6982">band</text><rect fill="#F1F1F1" height="12" style="stroke:#181818;stroke-width:1.5;" width="12" x="3107" y="610"/></g><g class="entity" data-entity="clt_stac_catalog" data-source-line="166" data-uid="ent0076" id="entity_clt_stac_catalog"><text fill="#000000" font-family="sans-serif" font-size="14" lengthAdjust="spacing" textLength="85.7979" x="2990.1011" y="846.4951">stac-catalog</text><rect fill="#F1F1F1" height="12" style="stroke:#181818;stroke-width:1.5;" width="12" x="3027" y="821.5"/></g><g class="entity" data-entity="my_super_stage_out_s3_bucket" data-source-line="176" data-uid="ent0079" id="entity_my_super_stage_out_s3_bucket"><text fill="#000000" font-family="sans-serif" font-size="14" lengthAdjust="spacing" textLength="70.8682" x="2111.5659" y="806.1982">s3_bucket</text><rect fill="#F1F1F1" height="12" style="stroke:#181818;stroke-width:1.5;" width="12" x="2141" y="821.5"/></g><g class="entity" data-entity="my_super_stage_out_sub_path" data-source-line="178" data-uid="ent0080" id="entity_my_super_stage_out_sub_path"><text fill="#000000" font-family="sans-serif" font-size="14" lengthAdjust="spacing" textLength="63.8818" x="2203.5591" y="806.1982">sub_path</text><rect fill="#F1F1F1" height="12" style="stroke:#181818;stroke-width:1.5;" width="12" x="2229.5" y="821.5"/></g><g class="entity" data-entity="my_super_stage_out_aws_access_key_id" data-source-line="180" data-uid="ent0081" id="entity_my_super_stage_out_aws_access_key_id"><text fill="#000000" font-family="sans-serif" font-size="14" lengthAdjust="spacing" textLength="133.2803" x="2294.3599" y="806.1982">aws_access_key_id</text><rect fill="#F1F1F1" height="12" style="stroke:#181818;stroke-width:1.5;" width="12" x="2355" y="821.5"/></g><g class="entity" data-entity="my_super_stage_out_aws_secret_access_key" data-source-line="182" data-uid="ent0082" id="entity_my_super_stage_out_aws_secret_access_key"><text fill="#000000" font-family="sans-serif" font-size="14" lengthAdjust="spacing" textLength="163.9668" x="2442.0166" y="806.1982">aws_secret_access_key</text><rect fill="#F1F1F1" height="12" style="stroke:#181818;stroke-width:1.5;" width="12" x="2518" y="821.5"/></g><g class="entity" data-entity="my_super_stage_out_region_name" data-source-line="184" data-uid="ent0083" id="entity_my_super_stage_out_region_name"><text fill="#000000" font-family="sans-serif" font-size="14" lengthAdjust="spacing" textLength="91.2871" x="2607.3564" y="806.1982">region_name</text><rect fill="#F1F1F1" height="12" style="stroke:#181818;stroke-width:1.5;" width="12" x="2647" y="821.5"/></g><g class="entity" data-entity="my_super_stage_out_endpoint_url" data-source-line="186" data-uid="ent0084" id="entity_my_super_stage_out_endpoint_url"><text fill="#000000" font-family="sans-serif" font-size="14" lengthAdjust="spacing" textLength="87.5957" x="2708.7021" y="806.1982">endpoint_url</text><rect fill="#F1F1F1" height="12" style="stroke:#181818;stroke-width:1.5;" width="12" x="2746.5" y="821.5"/></g><g class="entity" data-entity="my_super_stage_out_stac_catalog" data-source-line="188" data-uid="ent0085" id="entity_my_super_stage_out_stac_catalog"><text fill="#000000" font-family="sans-serif" font-size="14" lengthAdjust="spacing" textLength="87.7461" x="2806.627" y="806.1982">stac_catalog</text><rect fill="#F1F1F1" height="12" style="stroke:#181818;stroke-width:1.5;" width="12" x="2844.5" y="821.5"/></g><g class="entity" data-entity="my_super_stage_out_s3_catalog_output" data-source-line="191" data-uid="ent0086" id="entity_my_super_stage_out_s3_catalog_output"><text fill="#000000" font-family="sans-serif" font-size="14" lengthAdjust="spacing" textLength="128.0645" x="2419.4678" y="1025.4951">s3_catalog_output</text><rect fill="#F1F1F1" height="12" style="stroke:#181818;stroke-width:1.5;" width="12" x="2477.5" y="1000.5"/></g><!--link main_item to main_stage_in_0_reference--><g class="link" data-entity-1="main_item" data-entity-2="main_stage_in_0_reference" data-source-line="38" data-uid="lnk18" id="link_main_item_main_stage_in_0_reference"><path d="M155,78.03 C155,88.39 155,108.5 155,108.5 C155,108.5 1210,108.5 1210,108.5 C1210,108.5 1210,150.61 1210,167.9" fill="none" id="main_item-to-main_stage_in_0_reference" style="stroke:#181818;stroke-width:1;stroke-dasharray:7.0,7.0;"/><polygon fill="#181818" points="1210,173.9,1214,164.9,1210,168.9,1206,164.9,1210,173.9" style="stroke:#181818;stroke-width:1;"/></g><!--link main_another_input to main_stage_in_0_another_input--><g class="link" data-entity-1="main_another_input" data-entity-2="main_stage_in_0_another_input" data-source-line="41" data-uid="lnk20" id="link_main_another_input_main_stage_in_0_another_input"><path d="M77,78.2 C77,99.22 77,166.5 77,166.5 C77,166.5 1102.89,166.5 1110.95,166.5" fill="none" id="main_another_input-to-main_stage_in_0_another_input" style="stroke:#181818;stroke-width:1;stroke-dasharray:7.0,7.0;"/><polygon fill="#181818" points="1116.95,166.5,1107.95,162.5,1111.95,166.5,1107.95,170.5,1116.95,166.5" style="stroke:#181818;stroke-width:1;"/></g><!--link main_aoi to main_app_aoi--><g class="link" data-entity-1="main_aoi" data-entity-2="main_app_aoi" data-source-line="52" data-uid="lnk24" id="link_main_aoi_main_app_aoi"><path d="M307.07,74.5 C315.84,74.5 331,74.5 331,74.5 C331,74.5 331,446.5 331,446.5 C331,446.5 1204,446.5 1204,446.5 C1204,446.5 1204,489.96 1204,507.73" fill="none" id="main_aoi-to-main_app_aoi" style="stroke:#181818;stroke-width:1;stroke-dasharray:7.0,7.0;"/><polygon fill="#181818" points="1204,513.73,1208,504.73,1204,508.73,1200,504.73,1204,513.73" style="stroke:#181818;stroke-width:1;"/></g><!--link main_epsg to main_app_epsg--><g class="link" data-entity-1="main_epsg" data-entity-2="main_app_epsg" data-source-line="55" data-uid="lnk26" id="link_main_epsg_main_app_epsg"><path d="M348,78.29 C348,106.34 348,218.5 348,218.5 C348,218.5 1253,218.5 1253,218.5 C1253,218.5 1253,465.48 1253,507.98" fill="none" id="main_epsg-to-main_app_epsg" style="stroke:#181818;stroke-width:1;stroke-dasharray:7.0,7.0;"/><polygon fill="#181818" points="1253,513.98,1257,504.98,1253,508.98,1249,504.98,1253,513.98" style="stroke:#181818;stroke-width:1;"/></g><!--link main_bands to main_app_bands--><g class="link" data-entity-1="main_bands" data-entity-2="main_app_bands" data-source-line="58" data-uid="lnk28" id="link_main_bands_main_app_bands"><path d="M416,78.17 C416,131.22 416,508.5 416,508.5 C416,508.5 1300.91,508.5 1314.84,508.5" fill="none" id="main_bands-to-main_app_bands" style="stroke:#181818;stroke-width:1;stroke-dasharray:7.0,7.0;"/><polygon fill="#181818" points="1320.84,508.5,1311.84,504.5,1315.84,508.5,1311.84,512.5,1320.84,508.5" style="stroke:#181818;stroke-width:1;"/></g><!--link main_stage_in_0_staged to main_app_item--><g class="link" data-entity-1="main_stage_in_0_staged" data-entity-2="main_app_item" data-source-line="61" data-uid="lnk30" id="link_main_stage_in_0_staged_main_app_item"><path d="M1159,378.36 C1159,402.7 1159,483.81 1159,507.83" fill="none" id="main_stage_in_0_staged-to-main_app_item" style="stroke:#181818;stroke-width:1;stroke-dasharray:7.0,7.0;"/><polygon fill="#181818" points="1159,513.83,1163,504.83,1159,508.83,1155,504.83,1159,513.83" style="stroke:#181818;stroke-width:1;"/></g><!--link main_s3_bucket to main_stage_out_0_s3_bucket--><g class="link" data-entity-1="main_s3_bucket" data-entity-2="main_stage_out_0_s3_bucket" data-source-line="72" data-uid="lnk34" id="link_main_s3_bucket_main_stage_out_0_s3_bucket"><path d="M526.33,72.16 C526.33,75.35 526.33,126.5 526.33,126.5 C526.33,126.5 1015.75,126.5 1015.75,126.5 C1015.75,126.5 1015.75,746.92 1015.75,815.44" fill="none" id="main_s3_bucket-to-main_stage_out_0_s3_bucket" style="stroke:#181818;stroke-width:1;stroke-dasharray:7.0,7.0;"/><polygon fill="#181818" points="1015.75,821.44,1019.75,812.44,1015.75,816.44,1011.75,812.44,1015.75,821.44" style="stroke:#181818;stroke-width:1;"/></g><!--link main_sub_path to main_stage_out_0_sub_path--><g class="link" data-entity-1="main_sub_path" data-entity-2="main_stage_out_0_sub_path" data-source-line="75" data-uid="lnk36" id="link_main_sub_path_main_stage_out_0_sub_path"><path d="M603.75,72.12 C603.75,77.16 603.75,238.5 603.75,238.5 C603.75,238.5 1094.5,238.5 1094.5,238.5 C1094.5,238.5 1094.5,812.33 1094.5,821.39" fill="none" id="main_sub_path-to-main_stage_out_0_sub_path" style="stroke:#181818;stroke-width:1;stroke-dasharray:7.0,7.0;"/><polygon fill="#181818" points="1094.5,827.39,1098.5,818.39,1094.5,822.39,1090.5,818.39,1094.5,827.39" style="stroke:#181818;stroke-width:1;"/></g><!--link main_aws_access_key_id to main_stage_out_0_aws_access_key_id--><g class="link" data-entity-1="main_aws_access_key_id" data-entity-2="main_stage_out_0_aws_access_key_id" data-source-line="78" data-uid="lnk38" id="link_main_aws_access_key_id_main_stage_out_0_aws_access_key_id"><path d="M711,72.13 C711,82.79 711,765.5 711,765.5 C711,765.5 1194,765.5 1194,765.5 C1194,765.5 1194,819.58 1194,821.46" fill="none" id="main_aws_access_key_id-to-main_stage_out_0_aws_access_key_id" style="stroke:#181818;stroke-width:1;stroke-dasharray:7.0,7.0;"/><polygon fill="#181818" points="1194,827.46,1198,818.46,1194,822.46,1190,818.46,1194,827.46" style="stroke:#181818;stroke-width:1;"/></g><!--link main_aws_secret_access_key to main_stage_out_0_aws_secret_access_key--><g class="link" data-entity-1="main_aws_secret_access_key" data-entity-2="main_stage_out_0_aws_secret_access_key" data-source-line="81" data-uid="lnk40" id="link_main_aws_secret_access_key_main_stage_out_0_aws_secret_access_key"><path d="M923.5,72.09 C923.5,79.48 923.5,552.5 923.5,552.5 C923.5,552.5 1330.25,552.5 1330.25,552.5 C1330.25,552.5 1330.25,817.22 1330.25,821.45" fill="none" id="main_aws_secret_access_key-to-main_stage_out_0_aws_secret_access_key" style="stroke:#181818;stroke-width:1;stroke-dasharray:7.0,7.0;"/><polygon fill="#181818" points="1330.25,827.45,1334.25,818.45,1330.25,822.45,1326.25,818.45,1330.25,827.45" style="stroke:#181818;stroke-width:1;"/></g><!--link main_region_name to main_stage_out_0_region_name--><g class="link" data-entity-1="main_region_name" data-entity-2="main_stage_out_0_region_name" data-source-line="84" data-uid="lnk42" id="link_main_region_name_main_stage_out_0_region_name"><path d="M1019.05,72.5 C1076.25,72.5 1520,72.5 1520,72.5 C1520,72.5 1520,743.97 1520,815.42" fill="none" id="main_region_name-to-main_stage_out_0_region_name" style="stroke:#181818;stroke-width:1;stroke-dasharray:7.0,7.0;"/><polygon fill="#181818" points="1520,821.42,1524,812.42,1520,816.42,1516,812.42,1520,821.42" style="stroke:#181818;stroke-width:1;"/></g><!--link main_endpoint_url to main_stage_out_0_endpoint_url--><g class="link" data-entity-1="main_endpoint_url" data-entity-2="main_stage_out_0_endpoint_url" data-source-line="87" data-uid="lnk44" id="link_main_endpoint_url_main_stage_out_0_endpoint_url"><path d="M228,78.18 C228,95.71 228,144.5 228,144.5 C228,144.5 907.5,144.5 907.5,144.5 C907.5,144.5 907.5,810.87 907.5,821.38" fill="none" id="main_endpoint_url-to-main_stage_out_0_endpoint_url" style="stroke:#181818;stroke-width:1;stroke-dasharray:7.0,7.0;"/><polygon fill="#181818" points="907.5,827.38,911.5,818.38,907.5,822.38,903.5,818.38,907.5,827.38" style="stroke:#181818;stroke-width:1;"/></g><!--link main_app_stac_catalog to main_stage_out_0_stac_catalog--><g class="link" data-entity-1="main_app_stac_catalog" data-entity-2="main_stage_out_0_stac_catalog" data-source-line="90" data-uid="lnk46" id="link_main_app_stac_catalog_main_stage_out_0_stac_catalog"><path d="M1186.36,703.5 C1136.96,703.5 828.5,703.5 828.5,703.5 C828.5,703.5 828.5,789.91 828.5,815.18" fill="none" id="main_app_stac_catalog-to-main_stage_out_0_stac_catalog" style="stroke:#181818;stroke-width:1;stroke-dasharray:7.0,7.0;"/><polygon fill="#181818" points="828.5,821.18,832.5,812.18,828.5,816.18,824.5,812.18,828.5,821.18" style="stroke:#181818;stroke-width:1;"/></g><!--link pattern_1_item to pattern_1_step_item--><g class="link" data-entity-1="pattern_1_item" data-entity-2="pattern_1_step_item" data-source-line="135" data-uid="lnk62" id="link_pattern_1_item_pattern_1_step_item"><path d="M1651,526.27 C1651,544.04 1651,593.5 1651,593.5 C1651,593.5 1883,593.5 1883,593.5 C1883,593.5 1883,597.19 1883,603.85" fill="none" id="pattern_1_item-to-pattern_1_step_item" style="stroke:#181818;stroke-width:1;stroke-dasharray:7.0,7.0;"/><polygon fill="#181818" points="1883,609.85,1887,600.85,1883,604.85,1879,600.85,1883,609.85" style="stroke:#181818;stroke-width:1;"/></g><!--link pattern_1_aoi to pattern_1_step_aoi--><g class="link" data-entity-1="pattern_1_aoi" data-entity-2="pattern_1_step_aoi" data-source-line="138" data-uid="lnk64" id="link_pattern_1_aoi_pattern_1_step_aoi"><path d="M1695,526.37 C1695,541.72 1695,579.5 1695,579.5 C1695,579.5 1930,579.5 1930,579.5 C1930,579.5 1930,593.61 1930,603.97" fill="none" id="pattern_1_aoi-to-pattern_1_step_aoi" style="stroke:#181818;stroke-width:1;stroke-dasharray:7.0,7.0;"/><polygon fill="#181818" points="1930,609.97,1934,600.97,1930,604.97,1926,600.97,1930,609.97" style="stroke:#181818;stroke-width:1;"/></g><!--link pattern_1_epsg to pattern_1_step_epsg--><g class="link" data-entity-1="pattern_1_epsg" data-entity-2="pattern_1_step_epsg" data-source-line="141" data-uid="lnk66" id="link_pattern_1_epsg_pattern_1_step_epsg"><path d="M1742,526.33 C1742,538.83 1742,565.5 1742,565.5 C1742,565.5 1977,565.5 1977,565.5 C1977,565.5 1977,590.32 1977,603.81" fill="none" id="pattern_1_epsg-to-pattern_1_step_epsg" style="stroke:#181818;stroke-width:1;stroke-dasharray:7.0,7.0;"/><polygon fill="#181818" points="1977,609.81,1981,600.81,1977,604.81,1973,600.81,1977,609.81" style="stroke:#181818;stroke-width:1;"/></g><!--link pattern_1_bands to pattern_1_step_band--><g class="link" data-entity-1="pattern_1_bands" data-entity-2="pattern_1_step_band" data-source-line="144" data-uid="lnk68" id="link_pattern_1_bands_pattern_1_step_band"><path d="M1816.17,520.5 C1851.26,520.5 2024,520.5 2024,520.5 C2024,520.5 2024,582.49 2024,603.73" fill="none" id="pattern_1_bands-to-pattern_1_step_band" style="stroke:#181818;stroke-width:1;stroke-dasharray:7.0,7.0;"/><polygon fill="#181818" points="2024,609.73,2028,600.73,2024,604.73,2020,600.73,2024,609.73" style="stroke:#181818;stroke-width:1;"/></g><!--reverse link main_stac_catalog to main_stage_out_0_s3_catalog_output--><g class="link" data-entity-1="main_stac_catalog" data-entity-2="main_stage_out_0_s3_catalog_output" data-source-line="202" data-uid="lnk88" id="link_main_stac_catalog_main_stage_out_0_s3_catalog_output"><path d="M555,288.32 C555,359.71 555,1006.5 555,1006.5 C555,1006.5 812.07,1006.5 857.26,1006.5" fill="none" id="main_stac_catalog-backto-main_stage_out_0_s3_catalog_output" style="stroke:#181818;stroke-width:1;stroke-dasharray:7.0,7.0;"/><polygon fill="#181818" points="555,282.32,551,291.32,555,287.32,559,291.32,555,282.32" style="stroke:#181818;stroke-width:1;"/></g><!--link main_stage_in_0 to my_asthonishing_stage_in--><g class="link" data-entity-1="main_stage_in_0" data-entity-2="my_asthonishing_stage_in" data-source-line="207" data-uid="lnk89" id="link_main_stage_in_0_my_asthonishing_stage_in"><path d="M1245.7581,276.5 C1246.2364,276.5 1246.7162,276.5 1247.1975,276.5 C1248.1601,276.5 1249.1286,276.5 1250.103,276.5 C1265.6934,276.5 1282.784,276.5 1300.9673,276.5 C1337.3341,276.5 1378.0719,276.5 1419.9212,276.5 C1461.7706,276.5 1504.7316,276.5 1545.5445,276.5 C1565.951,276.5 1585.8205,276.5 1604.7456,276.5 C1614.2081,276.5 1623.4345,276.5 1632.3739,276.5 C1636.8436,276.5 1641.2415,276.5 1645.5613,276.5 C1647.7212,276.5 1649.8616,276.5 1651.9816,276.5 C1652.2467,276.5 1646.5113,276.5 1646.7757,276.5" fill="none" id="main_stage_in_0-to-my_asthonishing_stage_in" style="stroke:#181818;stroke-width:1;stroke-dasharray:7.0,7.0;"/><polygon fill="#181818" points="1652.7757,276.5,1643.7757,272.5,1647.7757,276.5,1643.7757,280.5,1652.7757,276.5" style="stroke:#181818;stroke-width:1;"/></g><!--link main_app to pattern_1--><g class="link" data-entity-1="main_app" data-entity-2="pattern_1" data-source-line="209" data-uid="lnk90" id="link_main_app_pattern_1"><path d="M1357.4466,619.5 C1358.7444,619.5 1360.0457,619.5 1361.3504,619.5 C1382.2259,619.5 1403.9703,619.5 1425.9288,619.5 C1469.8456,619.5 1514.6184,619.5 1555.007,619.5 C1575.2013,619.5 1594.2996,619.5 1611.6467,619.5 C1615.9835,619.5 1620.2109,619.5 1624.3186,619.5 C1625.3455,619.5 1626.3649,619.5 1627.3767,619.5 C1627.8826,619.5 1628.3866,619.5 1628.8887,619.5 C1629.1397,619.5 1623.3902,619.5 1623.6403,619.5" fill="none" id="main_app-to-pattern_1" style="stroke:#181818;stroke-width:1;stroke-dasharray:7.0,7.0;"/><polygon fill="#181818" points="1629.6403,619.5,1620.6403,615.5,1624.6403,619.5,1620.6403,623.5,1629.6403,619.5" style="stroke:#181818;stroke-width:1;"/></g><!--link main_stage_out_0 to my_super_stage_out--><g class="link" data-entity-1="main_stage_out_0" data-entity-2="my_super_stage_out" data-source-line="211" data-uid="lnk91" id="link_main_stage_out_0_my_super_stage_out"><path d="M1563.8437,919.5 C1568.5153,919.5 1573.1917,919.5 1577.8723,919.5 C1596.5945,919.5 1615.3833,919.5 1634.1975,919.5 C1784.7112,919.5 1936.8506,919.5 2069.5159,919.5 C2086.0991,919.5 2102.378,919.5 2118.3114,919.5 C2120.303,919.5 2122.2893,919.5 2124.2701,919.5 C2125.2605,919.5 2120.2495,919.5 2121.2372,919.5" fill="none" id="main_stage_out_0-to-my_super_stage_out" style="stroke:#181818;stroke-width:1;stroke-dasharray:7.0,7.0;"/><polygon fill="#181818" points="2127.2372,919.5,2118.2372,915.5,2122.2372,919.5,2118.2372,923.5,2127.2372,919.5" style="stroke:#181818;stroke-width:1;"/></g><!--reverse link pattern_1_stac_catalog to pattern_1_step_stac_catalog--><g class="link" data-entity-1="pattern_1_stac_catalog" data-entity-2="pattern_1_step_stac_catalog" data-source-line="222" data-uid="lnk93" id="link_pattern_1_stac_catalog_pattern_1_step_stac_catalog"><path d="M1765.12,717.5 C1770.3,717.5 1930,717.5 1930,717.5 C1930,717.5 1930,824.09 1930,827.42" fill="none" id="pattern_1_stac_catalog-backto-pattern_1_step_stac_catalog" style="stroke:#181818;stroke-width:1;stroke-dasharray:7.0,7.0;"/><polygon fill="#181818" points="1759.12,717.5,1768.12,721.5,1764.12,717.5,1768.12,713.5,1759.12,717.5" style="stroke:#181818;stroke-width:1;"/></g><!--link pattern_1_step to clt--><g class="link" data-entity-1="pattern_1_step" data-entity-2="clt" data-source-line="227" data-uid="lnk94" id="link_pattern_1_step_clt"><path d="M2038.3523,707.5 C2041.4373,707.5 2044.6512,707.5 2047.9894,707.5 C2061.3424,707.5 2076.6851,707.5 2093.727,707.5 C2127.8107,707.5 2168.691,707.5 2214.0439,707.5 C2304.7497,707.5 2413.3456,707.5 2521.2388,707.5 C2629.1319,707.5 2736.3222,707.5 2824.2167,707.5 C2868.164,707.5 2907.2873,707.5 2939.2626,707.5 C2943.2595,707.5 2947.1447,707.5 2950.9137,707.5 C2951.8559,707.5 2946.7909,707.5 2947.7186,707.5" fill="none" id="pattern_1_step-to-clt" style="stroke:#181818;stroke-width:1;stroke-dasharray:7.0,7.0;"/><polygon fill="#181818" points="2953.7186,707.5,2944.7186,703.5,2948.7186,707.5,2944.7186,711.5,2953.7186,707.5" style="stroke:#181818;stroke-width:1;"/></g><!--SRC=[hLZ1RkCW4BtdAwnSUagqLUzxsUiULzeZeWvDhCI035OLLVtt1TU10MOSucuERJoyDunXvisqvjn9pGVUDvTE2dlLeb63FQdDPYFLGJJRlseulrtKU_FKyqu-RPkFJUC-hUgraaBQPkljsuQRnd-PbwSV_gETDsVTSgdiIGpCxJRQW6Q9cM2g3k1LXwE4DiS8yqyuxfNBWud0wH57TbRq4UYVS9nvOQzZUnRWhOA9O8olJ7Dx0eJPGfp0ks6yROKnx2okh3k0yyYNQ0z6j8Em09rwAPPnJuCuTaeooNiH-S18t8uyQDL9oyRX0cu9M2Cl8QlH9PYnl6Kjj_oYm1r3QoH-kiJDyjC1Zy9b6FkHa6SRbR23U1E3aAt0I2oi1bx8acP_KEzo__CEfxP2W8EoMCB6oH8P0L9jz94VnG6DucifEV7imBdM8BUq9ZKXgMojGtN7rr9T-Z8GTKS3F3JeGF3eBQNBQhtmuAWPmUjaAjrMgui71uK9Nej3BtU8ilHGxNWgMJze-JXdPVrCHkfsCLsCh4mZuplVp5WIOymQTOLagBHnrzcwiEbQXOPESBMEsPulq-7y7ztFFU8z88clW2p7-9sk0dtb7IR411ReI5Rs9-YYw5LHKS0A7GBUwvAyfRfSpC6yOkFDPFMyaCT5rLF2yNA3UIRIaa8nfh14IZvlK-GlrVTE37-x6VEFKXStJ5vttBWvKtRcrCdZRlAv8mPC0liLqPN1nI2QbNsTOAzerfGdOiHTxhcKCwJvnaEEexfJAYi6kNl6ZZCiJblDJ-pvNfSEm8e67B4rdJMYQnfcHASpUKNlYzG7XaUX2wuWHneaIWzFctlw1g5MAKh5ZKm4E3qbbqNjyCWzJeHad4hlcDfZ-VwnJRmTsIGTiIZEqXYqer91B0n3j8Ar5ujLbpDF6xZVTvF4OIgksQFkNvL7LHosXyNJgZmiJw8hPb7apQZ5C2ksSqx8UuQwQU1aZkscSj8iU8zDZ0XzpUnNkld-p8RxN3jZbTvMp4cbapMJ3dBcQBfLZobe3YmCAZw9C-tOt9zrclsemP1L3cTGa_B_E-o7xdYodauqUq3pVqG7V92k3HfcuZWx1KmZeIrRMH39-TKNEchkEskW8KedBW-61Mp_0000]--></g></svg>