<?xml version="1.0" encoding="UTF-8" standalone="no"?>
<!DOCTYPE svg PUBLIC "-//W3C//DTD SVG 1.1//EN"
 "http://www.w3.org/Graphics/SVG/1.1/DTD/svg11.dtd">
<!-- Generated by graphviz version 2.43.0 (0)
 -->
<!-- Title: G Pages: 1 -->
<svg width="1823pt" height="395pt"
 viewBox="0.00 0.00 1823.00 395.00" xmlns="http://www.w3.org/2000/svg" xmlns:xlink="http://www.w3.org/1999/xlink">
<g id="graph0" class="graph" transform="scale(1 1) rotate(0) translate(4 391)">
<title>G</title>
<polygon fill="#eeeeee" stroke="transparent" points="-4,4 -4,-391 1819,-391 1819,4 -4,4"/>
<g id="clust1" class="cluster">
<title>cluster_inputs</title>
<polygon fill="#eeeeee" stroke="black" stroke-dasharray="5,2" points="8,-303 8,-379 1807,-379 1807,-303 8,-303"/>
<text text-anchor="middle" x="1740.5" y="-310.8" font-family="Times,serif" font-size="14.00">Workflow Inputs</text>
</g>
<g id="clust2" class="cluster">
<title>cluster_outputs</title>
<polygon fill="#eeeeee" stroke="black" stroke-dasharray="5,2" points="1194,-8 1194,-84 1354,-84 1354,-8 1194,-8"/>
<text text-anchor="middle" x="1281.5" y="-15.8" font-family="Times,serif" font-size="14.00">Workflow Outputs</text>
</g>
<!-- main/stage_in_0 -->
<g id="node1" class="node">
<title>main/stage_in_0</title>
<polygon fill="lightgoldenrodyellow" stroke="black" points="322.5,-258.5 322.5,-294.5 453.5,-294.5 453.5,-258.5 322.5,-258.5"/>
<text text-anchor="middle" x="388" y="-272.8" font-family="Times,serif" font-size="14.00">main/stage_in_0</text>
</g>
<!-- main/app -->
<g id="node2" class="node">
<title>main/app</title>
<polygon fill="#f3cea1" stroke="black" points="99,-185.5 99,-221.5 563,-221.5 563,-185.5 99,-185.5"/>
<text text-anchor="middle" x="331" y="-199.8" font-family="Times,serif" font-size="14.00">Water bodies detection based on NDWI and the otsu threshold</text>
</g>
<!-- main/stage_in_0&#45;&gt;main/app -->
<g id="edge1" class="edge">
<title>main/stage_in_0&#45;&gt;main/app</title>
<path fill="none" stroke="black" d="M374.2,-258.31C367.27,-249.68 358.74,-239.06 351.1,-229.53"/>
<polygon fill="black" stroke="black" points="353.66,-227.14 344.67,-221.53 348.2,-231.52 353.66,-227.14"/>
</g>
<!-- main/stage_out_0 -->
<g id="node4" class="node">
<title>main/stage_out_0</title>
<polygon fill="lightgoldenrodyellow" stroke="black" points="1203.5,-112.5 1203.5,-148.5 1344.5,-148.5 1344.5,-112.5 1203.5,-112.5"/>
<text text-anchor="middle" x="1274" y="-126.8" font-family="Times,serif" font-size="14.00">main/stage_out_0</text>
</g>
<!-- main/app&#45;&gt;main/stage_out_0 -->
<g id="edge3" class="edge">
<title>main/app&#45;&gt;main/stage_out_0</title>
<path fill="none" stroke="black" d="M556.87,-185.49C762.06,-170.04 1053.35,-148.11 1193.09,-137.59"/>
<polygon fill="black" stroke="black" points="1193.59,-141.06 1203.3,-136.82 1193.06,-134.08 1193.59,-141.06"/>
</g>
<!-- main/stage_in_1 -->
<g id="node3" class="node">
<title>main/stage_in_1</title>
<polygon fill="lightgoldenrodyellow" stroke="black" points="471.5,-258.5 471.5,-294.5 602.5,-294.5 602.5,-258.5 471.5,-258.5"/>
<text text-anchor="middle" x="537" y="-272.8" font-family="Times,serif" font-size="14.00">main/stage_in_1</text>
</g>
<!-- main/stage_in_1&#45;&gt;main/app -->
<g id="edge2" class="edge">
<title>main/stage_in_1&#45;&gt;main/app</title>
<path fill="none" stroke="black" d="M487.66,-258.49C458.44,-248.42 421.24,-235.6 390.42,-224.98"/>
<polygon fill="black" stroke="black" points="391.25,-221.56 380.65,-221.61 388.97,-228.18 391.25,-221.56"/>
</g>
<!-- main/stac_catalog -->
<g id="node17" class="node">
<title>main/stac_catalog</title>
<polygon fill="#94ddf4" stroke="black" points="1202,-39.5 1202,-75.5 1346,-75.5 1346,-39.5 1202,-39.5"/>
<text text-anchor="middle" x="1274" y="-53.8" font-family="Times,serif" font-size="14.00">main/stac_catalog</text>
</g>
<!-- main/stage_out_0&#45;&gt;main/stac_catalog -->
<g id="edge17" class="edge">
<title>main/stage_out_0&#45;&gt;main/stac_catalog</title>
<path fill="none" stroke="black" d="M1274,-112.31C1274,-104.29 1274,-94.55 1274,-85.57"/>
<polygon fill="black" stroke="black" points="1277.5,-85.53 1274,-75.53 1270.5,-85.53 1277.5,-85.53"/>
</g>
<!-- main/aoi -->
<g id="node5" class="node">
<title>main/aoi</title>
<polygon fill="#94ddf4" stroke="black" points="16.5,-334.5 16.5,-370.5 93.5,-370.5 93.5,-334.5 16.5,-334.5"/>
<text text-anchor="middle" x="55" y="-348.8" font-family="Times,serif" font-size="14.00">main/aoi</text>
</g>
<!-- main/aoi&#45;&gt;main/app -->
<g id="edge4" class="edge">
<title>main/aoi&#45;&gt;main/app</title>
<path fill="none" stroke="black" d="M69.19,-334.13C78.1,-324.06 90.28,-311.69 103,-303 153.8,-268.31 218.79,-241.69 266.38,-224.92"/>
<polygon fill="black" stroke="black" points="267.66,-228.18 275.96,-221.6 265.36,-221.57 267.66,-228.18"/>
</g>
<!-- main/bands -->
<g id="node6" class="node">
<title>main/bands</title>
<polygon fill="#94ddf4" stroke="black" points="111.5,-334.5 111.5,-370.5 210.5,-370.5 210.5,-334.5 111.5,-334.5"/>
<text text-anchor="middle" x="161" y="-348.8" font-family="Times,serif" font-size="14.00">main/bands</text>
</g>
<!-- main/bands&#45;&gt;main/app -->
<g id="edge5" class="edge">
<title>main/bands&#45;&gt;main/app</title>
<path fill="none" stroke="black" d="M180.83,-334.35C211.16,-308.13 269.14,-257.99 303.51,-228.27"/>
<polygon fill="black" stroke="black" points="306.02,-230.73 311.29,-221.54 301.44,-225.43 306.02,-230.73"/>
</g>
<!-- main/epsg -->
<g id="node7" class="node">
<title>main/epsg</title>
<polygon fill="#94ddf4" stroke="black" points="229,-334.5 229,-370.5 319,-370.5 319,-334.5 229,-334.5"/>
<text text-anchor="middle" x="274" y="-348.8" font-family="Times,serif" font-size="14.00">main/epsg</text>
</g>
<!-- main/epsg&#45;&gt;main/app -->
<g id="edge6" class="edge">
<title>main/epsg&#45;&gt;main/app</title>
<path fill="none" stroke="black" d="M280.65,-334.35C290.52,-308.9 309.12,-260.93 320.74,-230.96"/>
<polygon fill="black" stroke="black" points="324.04,-232.13 324.39,-221.54 317.51,-229.6 324.04,-232.13"/>
</g>
<!-- main/another_input -->
<g id="node8" class="node">
<title>main/another_input</title>
<polygon fill="#94ddf4" stroke="black" points="459,-334.5 459,-370.5 615,-370.5 615,-334.5 459,-334.5"/>
<text text-anchor="middle" x="537" y="-348.8" font-family="Times,serif" font-size="14.00">main/another_input</text>
</g>
<!-- main/another_input&#45;&gt;main/stage_in_0 -->
<g id="edge7" class="edge">
<title>main/another_input&#45;&gt;main/stage_in_0</title>
<path fill="none" stroke="black" d="M508.45,-334.46C491.69,-324.74 469.94,-312.62 450,-303 446.92,-301.51 443.73,-300.03 440.49,-298.58"/>
<polygon fill="black" stroke="black" points="441.88,-295.36 431.32,-294.55 439.06,-301.77 441.88,-295.36"/>
</g>
<!-- main/another_input&#45;&gt;main/stage_in_1 -->
<g id="edge8" class="edge">
<title>main/another_input&#45;&gt;main/stage_in_1</title>
<path fill="none" stroke="black" d="M537,-334.34C537,-325.56 537,-314.66 537,-304.77"/>
<polygon fill="black" stroke="black" points="540.5,-304.57 537,-294.57 533.5,-304.57 540.5,-304.57"/>
</g>
<!-- main/item_1 -->
<g id="node9" class="node">
<title>main/item_1</title>
<polygon fill="#94ddf4" stroke="black" points="337,-334.5 337,-370.5 441,-370.5 441,-334.5 337,-334.5"/>
<text text-anchor="middle" x="389" y="-348.8" font-family="Times,serif" font-size="14.00">main/item_1</text>
</g>
<!-- main/item_1&#45;&gt;main/stage_in_0 -->
<g id="edge9" class="edge">
<title>main/item_1&#45;&gt;main/stage_in_0</title>
<path fill="none" stroke="black" d="M388.77,-334.34C388.65,-325.56 388.5,-314.66 388.37,-304.77"/>
<polygon fill="black" stroke="black" points="391.87,-304.52 388.23,-294.57 384.87,-304.62 391.87,-304.52"/>
</g>
<!-- main/item_2 -->
<g id="node10" class="node">
<title>main/item_2</title>
<polygon fill="#94ddf4" stroke="black" points="633,-334.5 633,-370.5 737,-370.5 737,-334.5 633,-334.5"/>
<text text-anchor="middle" x="685" y="-348.8" font-family="Times,serif" font-size="14.00">main/item_2</text>
</g>
<!-- main/item_2&#45;&gt;main/stage_in_1 -->
<g id="edge10" class="edge">
<title>main/item_2&#45;&gt;main/stage_in_1</title>
<path fill="none" stroke="black" d="M667.35,-334.41C655.81,-324.05 639.97,-311.28 624,-303 620.23,-301.04 616.28,-299.22 612.24,-297.51"/>
<polygon fill="black" stroke="black" points="613.28,-294.16 602.69,-293.76 610.72,-300.67 613.28,-294.16"/>
</g>
<!-- main/aws_access_key_id -->
<g id="node11" class="node">
<title>main/aws_access_key_id</title>
<polygon fill="#94ddf4" stroke="black" points="755.5,-334.5 755.5,-370.5 944.5,-370.5 944.5,-334.5 755.5,-334.5"/>
<text text-anchor="middle" x="850" y="-348.8" font-family="Times,serif" font-size="14.00">main/aws_access_key_id</text>
</g>
<!-- main/aws_access_key_id&#45;&gt;main/stage_out_0 -->
<g id="edge11" class="edge">
<title>main/aws_access_key_id&#45;&gt;main/stage_out_0</title>
<path fill="none" stroke="black" d="M882.92,-334.42C959.15,-294.86 1147.73,-197.02 1232.07,-153.26"/>
<polygon fill="black" stroke="black" points="1233.84,-156.28 1241.1,-148.57 1230.61,-150.07 1233.84,-156.28"/>
</g>
<!-- main/aws_secret_access_key -->
<g id="node12" class="node">
<title>main/aws_secret_access_key</title>
<polygon fill="#94ddf4" stroke="black" points="963,-334.5 963,-370.5 1183,-370.5 1183,-334.5 963,-334.5"/>
<text text-anchor="middle" x="1073" y="-348.8" font-family="Times,serif" font-size="14.00">main/aws_secret_access_key</text>
</g>
<!-- main/aws_secret_access_key&#45;&gt;main/stage_out_0 -->
<g id="edge12" class="edge">
<title>main/aws_secret_access_key&#45;&gt;main/stage_out_0</title>
<path fill="none" stroke="black" d="M1088.77,-334.24C1124.22,-295.44 1210.28,-201.24 1251.4,-156.23"/>
<polygon fill="black" stroke="black" points="1254.14,-158.43 1258.3,-148.68 1248.97,-153.7 1254.14,-158.43"/>
</g>
<!-- main/endpoint_url -->
<g id="node13" class="node">
<title>main/endpoint_url</title>
<polygon fill="#94ddf4" stroke="black" points="1201,-334.5 1201,-370.5 1347,-370.5 1347,-334.5 1201,-334.5"/>
<text text-anchor="middle" x="1274" y="-348.8" font-family="Times,serif" font-size="14.00">main/endpoint_url</text>
</g>
<!-- main/endpoint_url&#45;&gt;main/stage_out_0 -->
<g id="edge13" class="edge">
<title>main/endpoint_url&#45;&gt;main/stage_out_0</title>
<path fill="none" stroke="black" d="M1274,-334.24C1274,-296.16 1274,-204.73 1274,-158.8"/>
<polygon fill="black" stroke="black" points="1277.5,-158.68 1274,-148.68 1270.5,-158.68 1277.5,-158.68"/>
</g>
<!-- main/region_name -->
<g id="node14" class="node">
<title>main/region_name</title>
<polygon fill="#94ddf4" stroke="black" points="1365,-334.5 1365,-370.5 1513,-370.5 1513,-334.5 1365,-334.5"/>
<text text-anchor="middle" x="1439" y="-348.8" font-family="Times,serif" font-size="14.00">main/region_name</text>
</g>
<!-- main/region_name&#45;&gt;main/stage_out_0 -->
<g id="edge14" class="edge">
<title>main/region_name&#45;&gt;main/stage_out_0</title>
<path fill="none" stroke="black" d="M1426.05,-334.24C1397.08,-295.6 1326.89,-202.02 1292.97,-156.8"/>
<polygon fill="black" stroke="black" points="1295.69,-154.58 1286.89,-148.68 1290.09,-158.78 1295.69,-154.58"/>
</g>
<!-- main/s3_bucket -->
<g id="node15" class="node">
<title>main/s3_bucket</title>
<polygon fill="#94ddf4" stroke="black" points="1531,-334.5 1531,-370.5 1659,-370.5 1659,-334.5 1531,-334.5"/>
<text text-anchor="middle" x="1595" y="-348.8" font-family="Times,serif" font-size="14.00">main/s3_bucket</text>
</g>
<!-- main/s3_bucket&#45;&gt;main/stage_out_0 -->
<g id="edge15" class="edge">
<title>main/s3_bucket&#45;&gt;main/stage_out_0</title>
<path fill="none" stroke="black" d="M1570.08,-334.42C1512.96,-295.27 1372.54,-199.03 1307.75,-154.63"/>
<polygon fill="black" stroke="black" points="1309.35,-151.49 1299.13,-148.72 1305.4,-157.26 1309.35,-151.49"/>
</g>
<!-- main/sub_path -->
<g id="node16" class="node">
<title>main/sub_path</title>
<polygon fill="#94ddf4" stroke="black" points="1677.5,-334.5 1677.5,-370.5 1798.5,-370.5 1798.5,-334.5 1677.5,-334.5"/>
<text text-anchor="middle" x="1738" y="-348.8" font-family="Times,serif" font-size="14.00">main/sub_path</text>
</g>
<!-- main/sub_path&#45;&gt;main/stage_out_0 -->
<g id="edge16" class="edge">
<title>main/sub_path&#45;&gt;main/stage_out_0</title>
<path fill="none" stroke="black" d="M1715.71,-334.39C1702.31,-324.52 1684.66,-312.28 1668,-303 1552.84,-238.85 1408.96,-181.56 1330.86,-152.21"/>
<polygon fill="black" stroke="black" points="1331.8,-148.83 1321.2,-148.6 1329.34,-155.38 1331.8,-148.83"/>
</g>
</g>
</svg>
