<svg xmlns="http://www.w3.org/2000/svg" xmlns:xlink="http://www.w3.org/1999/xlink" contentStyleType="text/css" data-diagram-type="DESCRIPTION" height="801px" preserveAspectRatio="none" style="width:2546px;height:801px;background:#FFFFFF;" version="1.1" viewBox="0 0 2546 801" width="2546px" zoomAndPan="magnify"><defs/><g><!--cluster Workflow 'main'--><g class="cluster" data-entity="Workflow 'main'" data-source-line="4" data-uid="ent0002" id="cluster_Workflow 'main'"><polygon fill="none" points="16,16,26,6,1237,6,1237,699,1227,709,16,709,16,16" style="stroke:#181818;stroke-width:1;"/><line style="stroke:#181818;stroke-width:1;" x1="1227" x2="1237" y1="16" y2="6"/><line style="stroke:#181818;stroke-width:1;" x1="16" x2="1227" y1="16" y2="16"/><line style="stroke:#181818;stroke-width:1;" x1="1227" x2="1227" y1="16" y2="709"/><text fill="#000000" font-family="sans-serif" font-size="14" font-weight="bold" lengthAdjust="spacing" textLength="126.9639" x="559.0181" y="31.9951">Workflow 'main'</text></g><!--cluster main--><g class="cluster" data-entity="main" data-source-line="5" data-uid="ent0003" id="cluster_main"><rect fill="none" height="204" rx="2.5" ry="2.5" style="stroke:#181818;stroke-width:1;" width="905.5" x="58.5" y="72"/><rect fill="none" height="10" style="stroke:#181818;stroke-width:1;" width="15" x="944" y="77"/><rect fill="none" height="2" style="stroke:#181818;stroke-width:1;" width="4" x="942" y="79"/><rect fill="none" height="2" style="stroke:#181818;stroke-width:1;" width="4" x="942" y="83"/><text fill="#000000" font-family="sans-serif" font-size="14" font-weight="bold" lengthAdjust="spacing" textLength="38.8008" x="491.8496" y="97.9951">main</text></g><!--cluster main_stage_in_0--><g class="cluster" data-entity="main_stage_in_0" data-source-line="33" data-uid="ent0015" id="cluster_main_stage_in_0"><rect fill="none" height="192" rx="2.5" ry="2.5" style="stroke:#181818;stroke-width:1;" width="131.5" x="1008.5" y="180"/><rect fill="none" height="10" style="stroke:#181818;stroke-width:1;" width="15" x="1120" y="185"/><rect fill="none" height="2" style="stroke:#181818;stroke-width:1;" width="4" x="1118" y="187"/><rect fill="none" height="2" style="stroke:#181818;stroke-width:1;" width="4" x="1118" y="191"/><text fill="#000000" font-family="sans-serif" font-size="14" font-weight="bold" lengthAdjust="spacing" textLength="82.4961" x="1033.002" y="205.9951">stage_in_0</text></g><!--cluster main_app--><g class="cluster" data-entity="main_app" data-source-line="47" data-uid="ent0021" id="cluster_main_app"><rect fill="none" height="163" rx="2.5" ry="2.5" style="stroke:#181818;stroke-width:1;" width="130" x="1087" y="508"/><rect fill="none" height="10" style="stroke:#181818;stroke-width:1;" width="15" x="1197" y="513"/><rect fill="none" height="2" style="stroke:#181818;stroke-width:1;" width="4" x="1195" y="515"/><rect fill="none" height="2" style="stroke:#181818;stroke-width:1;" width="4" x="1195" y="519"/><text fill="#000000" font-family="sans-serif" font-size="14" font-weight="bold" lengthAdjust="spacing" textLength="29.4902" x="1137.2549" y="533.9951">app</text></g><!--cluster CommandLineTool 'my-asthonishing-stage-in'--><g class="cluster" data-entity="CommandLineTool 'my-asthonishing-stage-in'" data-source-line="66" data-uid="ent0029" id="cluster_CommandLineTool 'my-asthonishing-stage-in'"><polygon fill="none" points="1261,116,1271,106,1697,106,1697,412,1687,422,1261,422,1261,116" style="stroke:#181818;stroke-width:1;"/><line style="stroke:#181818;stroke-width:1;" x1="1687" x2="1697" y1="116" y2="106"/><line style="stroke:#181818;stroke-width:1;" x1="1261" x2="1687" y1="116" y2="116"/><line style="stroke:#181818;stroke-width:1;" x1="1687" x2="1687" y1="116" y2="422"/><text fill="#000000" font-family="sans-serif" font-size="14" font-weight="bold" lengthAdjust="spacing" textLength="360.5273" x="1294.7363" y="131.9951">CommandLineTool 'my-asthonishing-stage-in'</text></g><!--cluster my_asthonishing_stage_in--><g class="cluster" data-entity="my_asthonishing_stage_in" data-source-line="67" data-uid="ent0030" id="cluster_my_asthonishing_stage_in"><rect fill="none" height="192" rx="2.5" ry="2.5" style="stroke:#181818;stroke-width:1;" width="268" x="1304" y="180"/><rect fill="none" height="10" style="stroke:#181818;stroke-width:1;" width="15" x="1552" y="185"/><rect fill="none" height="2" style="stroke:#181818;stroke-width:1;" width="4" x="1550" y="187"/><rect fill="none" height="2" style="stroke:#181818;stroke-width:1;" width="4" x="1550" y="191"/><text fill="#000000" font-family="sans-serif" font-size="14" font-weight="bold" lengthAdjust="spacing" textLength="201.8105" x="1337.0947" y="205.9951">my-asthonishing-stage-in</text></g><!--cluster Workflow 'pattern-6'--><g class="cluster" data-entity="Workflow 'pattern-6'" data-source-line="81" data-uid="ent0034" id="cluster_Workflow 'pattern-6'"><polygon fill="none" points="1261,456,1271,446,1593,446,1593,774.5,1583,784.5,1261,784.5,1261,456" style="stroke:#181818;stroke-width:1;"/><line style="stroke:#181818;stroke-width:1;" x1="1583" x2="1593" y1="456" y2="446"/><line style="stroke:#181818;stroke-width:1;" x1="1261" x2="1583" y1="456" y2="456"/><line style="stroke:#181818;stroke-width:1;" x1="1583" x2="1583" y1="456" y2="784.5"/><text fill="#000000" font-family="sans-serif" font-size="14" font-weight="bold" lengthAdjust="spacing" textLength="162.9346" x="1341.5327" y="471.9951">Workflow 'pattern-6'</text></g><!--cluster pattern_6--><g class="cluster" data-entity="pattern_6" data-source-line="82" data-uid="ent0035" id="cluster_pattern_6"><rect fill="none" height="163" rx="2.5" ry="2.5" style="stroke:#181818;stroke-width:1;" width="130" x="1297" y="508"/><rect fill="none" height="10" style="stroke:#181818;stroke-width:1;" width="15" x="1407" y="513"/><rect fill="none" height="2" style="stroke:#181818;stroke-width:1;" width="4" x="1405" y="515"/><rect fill="none" height="2" style="stroke:#181818;stroke-width:1;" width="4" x="1405" y="519"/><text fill="#000000" font-family="sans-serif" font-size="14" font-weight="bold" lengthAdjust="spacing" textLength="74.7715" x="1324.6143" y="533.9951">pattern-6</text></g><!--cluster pattern_6_step--><g class="cluster" data-entity="pattern_6_step" data-source-line="96" data-uid="ent0040" id="cluster_pattern_6_step"><rect fill="none" height="154.5" rx="2.5" ry="2.5" style="stroke:#181818;stroke-width:1;" width="130" x="1443" y="592"/><rect fill="none" height="10" style="stroke:#181818;stroke-width:1;" width="15" x="1553" y="597"/><rect fill="none" height="2" style="stroke:#181818;stroke-width:1;" width="4" x="1551" y="599"/><rect fill="none" height="2" style="stroke:#181818;stroke-width:1;" width="4" x="1551" y="603"/><text fill="#000000" font-family="sans-serif" font-size="14" font-weight="bold" lengthAdjust="spacing" textLength="34.542" x="1490.729" y="617.9951">step</text></g><!--cluster CommandLineTool 'clt'--><g class="cluster" data-entity="CommandLineTool 'clt'" data-source-line="115" data-uid="ent0048" id="cluster_CommandLineTool 'clt'"><polygon fill="none" points="1617,540,1627,530,1871,530,1871,774.5,1861,784.5,1617,784.5,1617,540" style="stroke:#181818;stroke-width:1;"/><line style="stroke:#181818;stroke-width:1;" x1="1861" x2="1871" y1="540" y2="530"/><line style="stroke:#181818;stroke-width:1;" x1="1617" x2="1861" y1="540" y2="540"/><line style="stroke:#181818;stroke-width:1;" x1="1861" x2="1861" y1="540" y2="784.5"/><text fill="#000000" font-family="sans-serif" font-size="14" font-weight="bold" lengthAdjust="spacing" textLength="178.5068" x="1650.7466" y="555.9951">CommandLineTool 'clt'</text></g><!--cluster clt--><g class="cluster" data-entity="clt" data-source-line="116" data-uid="ent0049" id="cluster_clt"><rect fill="none" height="154.5" rx="2.5" ry="2.5" style="stroke:#181818;stroke-width:1;" width="130" x="1637" y="592"/><rect fill="none" height="10" style="stroke:#181818;stroke-width:1;" width="15" x="1747" y="597"/><rect fill="none" height="2" style="stroke:#181818;stroke-width:1;" width="4" x="1745" y="599"/><rect fill="none" height="2" style="stroke:#181818;stroke-width:1;" width="4" x="1745" y="603"/><text fill="#000000" font-family="sans-serif" font-size="14" font-weight="bold" lengthAdjust="spacing" textLength="19.79" x="1692.105" y="617.9951">clt</text></g><!--cluster CommandLineTool 'my-super-stage-out'--><g class="cluster" data-entity="CommandLineTool 'my-super-stage-out'" data-source-line="132" data-uid="ent0054" id="cluster_CommandLineTool 'my-super-stage-out'"><polygon fill="none" points="1721,16,1731,6,2529,6,2529,308,2519,318,1721,318,1721,16" style="stroke:#181818;stroke-width:1;"/><line style="stroke:#181818;stroke-width:1;" x1="2519" x2="2529" y1="16" y2="6"/><line style="stroke:#181818;stroke-width:1;" x1="1721" x2="2519" y1="16" y2="16"/><line style="stroke:#181818;stroke-width:1;" x1="2519" x2="2519" y1="16" y2="318"/><text fill="#000000" font-family="sans-serif" font-size="14" font-weight="bold" lengthAdjust="spacing" textLength="314.8496" x="1963.5752" y="31.9951">CommandLineTool 'my-super-stage-out'</text></g><!--cluster my_super_stage_out--><g class="cluster" data-entity="my_super_stage_out" data-source-line="133" data-uid="ent0055" id="cluster_my_super_stage_out"><rect fill="none" height="204" rx="2.5" ry="2.5" style="stroke:#181818;stroke-width:1;" width="739.5" x="1756" y="72"/><rect fill="none" height="10" style="stroke:#181818;stroke-width:1;" width="15" x="2475.5" y="77"/><rect fill="none" height="2" style="stroke:#181818;stroke-width:1;" width="4" x="2473.5" y="79"/><rect fill="none" height="2" style="stroke:#181818;stroke-width:1;" width="4" x="2473.5" y="83"/><text fill="#000000" font-family="sans-serif" font-size="14" font-weight="bold" lengthAdjust="spacing" textLength="156.1328" x="2047.6836" y="97.9951">my-super-stage-out</text></g><g class="entity" data-entity="main_another_input" data-source-line="7" data-uid="ent0004" id="entity_main_another_input"><text fill="#000000" font-family="sans-serif" font-size="14" lengthAdjust="spacing" textLength="97.7607" x="131.6196" y="50.6982">another_input</text><rect fill="#F1F1F1" height="12" style="stroke:#181818;stroke-width:1.5;" width="12" x="174.5" y="66"/></g><g class="entity" data-entity="main_aoi" data-source-line="9" data-uid="ent0005" id="entity_main_aoi"><text fill="#000000" font-family="sans-serif" font-size="14" lengthAdjust="spacing" textLength="21.0342" x="888.4829" y="50.6982">aoi</text><rect fill="#F1F1F1" height="12" style="stroke:#181818;stroke-width:1.5;" width="12" x="893" y="66"/></g><g class="entity" data-entity="main_epsg" data-source-line="11" data-uid="ent0006" id="entity_main_epsg"><text fill="#000000" font-family="sans-serif" font-size="14" lengthAdjust="spacing" textLength="33.6807" x="929.1597" y="50.6982">epsg</text><rect fill="#F1F1F1" height="12" style="stroke:#181818;stroke-width:1.5;" width="12" x="940" y="66"/></g><g class="entity" data-entity="main_item" data-source-line="13" data-uid="ent0007" id="entity_main_item"><text fill="#000000" font-family="sans-serif" font-size="14" lengthAdjust="spacing" textLength="31.6299" x="237.1851" y="50.6982">item</text><rect fill="#F1F1F1" height="12" style="stroke:#181818;stroke-width:1.5;" width="12" x="247" y="66"/></g><g class="entity" data-entity="main_s3_bucket" data-source-line="15" data-uid="ent0008" id="entity_main_s3_bucket"><text fill="#000000" font-family="sans-serif" font-size="14" lengthAdjust="spacing" textLength="70.8682" x="287.5659" y="50.6982">s3_bucket</text><rect fill="#F1F1F1" height="12" style="stroke:#181818;stroke-width:1.5;" width="12" x="317" y="66"/></g><g class="entity" data-entity="main_sub_path" data-source-line="17" data-uid="ent0009" id="entity_main_sub_path"><text fill="#000000" font-family="sans-serif" font-size="14" lengthAdjust="spacing" textLength="63.8818" x="379.5591" y="50.6982">sub_path</text><rect fill="#F1F1F1" height="12" style="stroke:#181818;stroke-width:1.5;" width="12" x="405.5" y="66"/></g><g class="entity" data-entity="main_aws_access_key_id" data-source-line="19" data-uid="ent0010" id="entity_main_aws_access_key_id"><text fill="#000000" font-family="sans-serif" font-size="14" lengthAdjust="spacing" textLength="133.2803" x="470.3599" y="50.6982">aws_access_key_id</text><rect fill="#F1F1F1" height="12" style="stroke:#181818;stroke-width:1.5;" width="12" x="531" y="66"/></g><g class="entity" data-entity="main_aws_secret_access_key" data-source-line="21" data-uid="ent0011" id="entity_main_aws_secret_access_key"><text fill="#000000" font-family="sans-serif" font-size="14" lengthAdjust="spacing" textLength="163.9668" x="618.0166" y="50.6982">aws_secret_access_key</text><rect fill="#F1F1F1" height="12" style="stroke:#181818;stroke-width:1.5;" width="12" x="694" y="66"/></g><g class="entity" data-entity="main_region_name" data-source-line="23" data-uid="ent0012" id="entity_main_region_name"><text fill="#000000" font-family="sans-serif" font-size="14" lengthAdjust="spacing" textLength="91.2871" x="783.3564" y="50.6982">region_name</text><rect fill="#F1F1F1" height="12" style="stroke:#181818;stroke-width:1.5;" width="12" x="823" y="66"/></g><g class="entity" data-entity="main_endpoint_url" data-source-line="25" data-uid="ent0013" id="entity_main_endpoint_url"><text fill="#000000" font-family="sans-serif" font-size="14" lengthAdjust="spacing" textLength="87.5957" x="32.7021" y="50.6982">endpoint_url</text><rect fill="#F1F1F1" height="12" style="stroke:#181818;stroke-width:1.5;" width="12" x="70.5" y="66"/></g><g class="entity" data-entity="main_mean" data-source-line="28" data-uid="ent0014" id="entity_main_mean"><text fill="#000000" font-family="sans-serif" font-size="14" lengthAdjust="spacing" textLength="39.7031" x="592.1484" y="294.9951">mean</text><rect fill="#F1F1F1" height="12" style="stroke:#181818;stroke-width:1.5;" width="12" x="606" y="270"/></g><g class="entity" data-entity="main_stage_in_0_reference" data-source-line="35" data-uid="ent0016" id="entity_main_stage_in_0_reference"><text fill="#000000" font-family="sans-serif" font-size="14" lengthAdjust="spacing" textLength="67.4639" x="1088.2681" y="158.6982">reference</text><rect fill="#F1F1F1" height="12" style="stroke:#181818;stroke-width:1.5;" width="12" x="1116" y="174"/></g><g class="entity" data-entity="main_stage_in_0_another_input" data-source-line="38" data-uid="ent0018" id="entity_main_stage_in_0_another_input"><text fill="#000000" font-family="sans-serif" font-size="14" lengthAdjust="spacing" textLength="97.7607" x="977.6196" y="158.6982">another_input</text><rect fill="#F1F1F1" height="12" style="stroke:#181818;stroke-width:1.5;" width="12" x="1020.5" y="174"/></g><g class="entity" data-entity="main_stage_in_0_staged" data-source-line="43" data-uid="ent0020" id="entity_main_stage_in_0_staged"><text fill="#000000" font-family="sans-serif" font-size="14" lengthAdjust="spacing" textLength="47.749" x="1070.1255" y="390.9951">staged</text><rect fill="#F1F1F1" height="12" style="stroke:#181818;stroke-width:1.5;" width="12" x="1088" y="366"/></g><g class="entity" data-entity="main_app_aoi" data-source-line="49" data-uid="ent0022" id="entity_main_app_aoi"><text fill="#000000" font-family="sans-serif" font-size="14" lengthAdjust="spacing" textLength="21.0342" x="1141.4829" y="486.6982">aoi</text><rect fill="#F1F1F1" height="12" style="stroke:#181818;stroke-width:1.5;" width="12" x="1146" y="502"/></g><g class="entity" data-entity="main_app_epsg" data-source-line="52" data-uid="ent0024" id="entity_main_app_epsg"><text fill="#000000" font-family="sans-serif" font-size="14" lengthAdjust="spacing" textLength="33.6807" x="1182.1597" y="486.6982">epsg</text><rect fill="#F1F1F1" height="12" style="stroke:#181818;stroke-width:1.5;" width="12" x="1193" y="502"/></g><g class="entity" data-entity="main_app_item" data-source-line="55" data-uid="ent0026" id="entity_main_app_item"><text fill="#000000" font-family="sans-serif" font-size="14" lengthAdjust="spacing" textLength="31.6299" x="1089.1851" y="486.6982">item</text><rect fill="#F1F1F1" height="12" style="stroke:#181818;stroke-width:1.5;" width="12" x="1099" y="502"/></g><g class="entity" data-entity="main_app_mean" data-source-line="60" data-uid="ent0028" id="entity_main_app_mean"><text fill="#000000" font-family="sans-serif" font-size="14" lengthAdjust="spacing" textLength="39.7031" x="1101.1484" y="689.9951">mean</text><rect fill="#F1F1F1" height="12" style="stroke:#181818;stroke-width:1.5;" width="12" x="1115" y="665"/></g><g class="entity" data-entity="my_asthonishing_stage_in_reference" data-source-line="69" data-uid="ent0031" id="entity_my_asthonishing_stage_in_reference"><text fill="#000000" font-family="sans-serif" font-size="14" lengthAdjust="spacing" textLength="67.4639" x="1288.2681" y="158.6982">reference</text><rect fill="#F1F1F1" height="12" style="stroke:#181818;stroke-width:1.5;" width="12" x="1316" y="174"/></g><g class="entity" data-entity="my_asthonishing_stage_in_another_input" data-source-line="71" data-uid="ent0032" id="entity_my_asthonishing_stage_in_another_input"><text fill="#000000" font-family="sans-serif" font-size="14" lengthAdjust="spacing" textLength="97.7607" x="1375.6196" y="158.6982">another_input</text><rect fill="#F1F1F1" height="12" style="stroke:#181818;stroke-width:1.5;" width="12" x="1418.5" y="174"/></g><g class="entity" data-entity="my_asthonishing_stage_in_staged" data-source-line="74" data-uid="ent0033" id="entity_my_asthonishing_stage_in_staged"><text fill="#000000" font-family="sans-serif" font-size="14" lengthAdjust="spacing" textLength="47.749" x="1394.1255" y="390.9951">staged</text><rect fill="#F1F1F1" height="12" style="stroke:#181818;stroke-width:1.5;" width="12" x="1412" y="366"/></g><g class="entity" data-entity="pattern_6_aoi" data-source-line="84" data-uid="ent0036" id="entity_pattern_6_aoi"><text fill="#000000" font-family="sans-serif" font-size="14" lengthAdjust="spacing" textLength="21.0342" x="1351.4829" y="486.6982">aoi</text><rect fill="#F1F1F1" height="12" style="stroke:#181818;stroke-width:1.5;" width="12" x="1356" y="502"/></g><g class="entity" data-entity="pattern_6_epsg" data-source-line="86" data-uid="ent0037" id="entity_pattern_6_epsg"><text fill="#000000" font-family="sans-serif" font-size="14" lengthAdjust="spacing" textLength="33.6807" x="1392.1597" y="486.6982">epsg</text><rect fill="#F1F1F1" height="12" style="stroke:#181818;stroke-width:1.5;" width="12" x="1403" y="502"/></g><g class="entity" data-entity="pattern_6_item" data-source-line="88" data-uid="ent0038" id="entity_pattern_6_item"><text fill="#000000" font-family="sans-serif" font-size="14" lengthAdjust="spacing" textLength="31.6299" x="1299.1851" y="486.6982">item</text><rect fill="#F1F1F1" height="12" style="stroke:#181818;stroke-width:1.5;" width="12" x="1309" y="502"/></g><g class="entity" data-entity="pattern_6_mean" data-source-line="91" data-uid="ent0039" id="entity_pattern_6_mean"><text fill="#000000" font-family="sans-serif" font-size="14" lengthAdjust="spacing" textLength="39.7031" x="1361.1484" y="689.9951">mean</text><rect fill="#F1F1F1" height="12" style="stroke:#181818;stroke-width:1.5;" width="12" x="1375" y="665"/></g><g class="entity" data-entity="pattern_6_step_item" data-source-line="98" data-uid="ent0041" id="entity_pattern_6_step_item"><text fill="#000000" font-family="sans-serif" font-size="14" lengthAdjust="spacing" textLength="31.6299" x="1445.1851" y="570.6982">item</text><rect fill="#F1F1F1" height="12" style="stroke:#181818;stroke-width:1.5;" width="12" x="1455" y="586"/></g><g class="entity" data-entity="pattern_6_step_aoi" data-source-line="101" data-uid="ent0043" id="entity_pattern_6_step_aoi"><text fill="#000000" font-family="sans-serif" font-size="14" lengthAdjust="spacing" textLength="21.0342" x="1497.4829" y="570.6982">aoi</text><rect fill="#F1F1F1" height="12" style="stroke:#181818;stroke-width:1.5;" width="12" x="1502" y="586"/></g><g class="entity" data-entity="pattern_6_step_epsg" data-source-line="104" data-uid="ent0045" id="entity_pattern_6_step_epsg"><text fill="#000000" font-family="sans-serif" font-size="14" lengthAdjust="spacing" textLength="33.6807" x="1538.1597" y="570.6982">epsg</text><rect fill="#F1F1F1" height="12" style="stroke:#181818;stroke-width:1.5;" width="12" x="1549" y="586"/></g><g class="entity" data-entity="pattern_6_step_mean" data-source-line="109" data-uid="ent0047" id="entity_pattern_6_step_mean"><text fill="#000000" font-family="sans-serif" font-size="14" lengthAdjust="spacing" textLength="39.7031" x="1470.1484" y="765.4951">mean</text><rect fill="#F1F1F1" height="12" style="stroke:#181818;stroke-width:1.5;" width="12" x="1484" y="740.5"/></g><g class="entity" data-entity="clt_item" data-source-line="118" data-uid="ent0050" id="entity_clt_item"><text fill="#000000" font-family="sans-serif" font-size="14" lengthAdjust="spacing" textLength="31.6299" x="1639.1851" y="570.6982">item</text><rect fill="#F1F1F1" height="12" style="stroke:#181818;stroke-width:1.5;" width="12" x="1649" y="586"/></g><g class="entity" data-entity="clt_aoi" data-source-line="120" data-uid="ent0051" id="entity_clt_aoi"><text fill="#000000" font-family="sans-serif" font-size="14" lengthAdjust="spacing" textLength="21.0342" x="1691.4829" y="570.6982">aoi</text><rect fill="#F1F1F1" height="12" style="stroke:#181818;stroke-width:1.5;" width="12" x="1696" y="586"/></g><g class="entity" data-entity="clt_epsg" data-source-line="122" data-uid="ent0052" id="entity_clt_epsg"><text fill="#000000" font-family="sans-serif" font-size="14" lengthAdjust="spacing" textLength="33.6807" x="1732.1597" y="570.6982">epsg</text><rect fill="#F1F1F1" height="12" style="stroke:#181818;stroke-width:1.5;" width="12" x="1743" y="586"/></g><g class="entity" data-entity="clt_mean" data-source-line="125" data-uid="ent0053" id="entity_clt_mean"><text fill="#000000" font-family="sans-serif" font-size="14" lengthAdjust="spacing" textLength="39.7031" x="1669.1484" y="765.4951">mean</text><rect fill="#F1F1F1" height="12" style="stroke:#181818;stroke-width:1.5;" width="12" x="1683" y="740.5"/></g><g class="entity" data-entity="my_super_stage_out_s3_bucket" data-source-line="135" data-uid="ent0056" id="entity_my_super_stage_out_s3_bucket"><text fill="#000000" font-family="sans-serif" font-size="14" lengthAdjust="spacing" textLength="70.8682" x="1738.5659" y="50.6982">s3_bucket</text><rect fill="#F1F1F1" height="12" style="stroke:#181818;stroke-width:1.5;" width="12" x="1768" y="66"/></g><g class="entity" data-entity="my_super_stage_out_sub_path" data-source-line="137" data-uid="ent0057" id="entity_my_super_stage_out_sub_path"><text fill="#000000" font-family="sans-serif" font-size="14" lengthAdjust="spacing" textLength="63.8818" x="1830.5591" y="50.6982">sub_path</text><rect fill="#F1F1F1" height="12" style="stroke:#181818;stroke-width:1.5;" width="12" x="1856.5" y="66"/></g><g class="entity" data-entity="my_super_stage_out_aws_access_key_id" data-source-line="139" data-uid="ent0058" id="entity_my_super_stage_out_aws_access_key_id"><text fill="#000000" font-family="sans-serif" font-size="14" lengthAdjust="spacing" textLength="133.2803" x="1921.3599" y="50.6982">aws_access_key_id</text><rect fill="#F1F1F1" height="12" style="stroke:#181818;stroke-width:1.5;" width="12" x="1982" y="66"/></g><g class="entity" data-entity="my_super_stage_out_aws_secret_access_key" data-source-line="141" data-uid="ent0059" id="entity_my_super_stage_out_aws_secret_access_key"><text fill="#000000" font-family="sans-serif" font-size="14" lengthAdjust="spacing" textLength="163.9668" x="2069.0166" y="50.6982">aws_secret_access_key</text><rect fill="#F1F1F1" height="12" style="stroke:#181818;stroke-width:1.5;" width="12" x="2145" y="66"/></g><g class="entity" data-entity="my_super_stage_out_region_name" data-source-line="143" data-uid="ent0060" id="entity_my_super_stage_out_region_name"><text fill="#000000" font-family="sans-serif" font-size="14" lengthAdjust="spacing" textLength="91.2871" x="2234.3564" y="50.6982">region_name</text><rect fill="#F1F1F1" height="12" style="stroke:#181818;stroke-width:1.5;" width="12" x="2274" y="66"/></g><g class="entity" data-entity="my_super_stage_out_endpoint_url" data-source-line="145" data-uid="ent0061" id="entity_my_super_stage_out_endpoint_url"><text fill="#000000" font-family="sans-serif" font-size="14" lengthAdjust="spacing" textLength="87.5957" x="2335.7021" y="50.6982">endpoint_url</text><rect fill="#F1F1F1" height="12" style="stroke:#181818;stroke-width:1.5;" width="12" x="2373.5" y="66"/></g><g class="entity" data-entity="my_super_stage_out_stac_catalog" data-source-line="147" data-uid="ent0062" id="entity_my_super_stage_out_stac_catalog"><text fill="#000000" font-family="sans-serif" font-size="14" lengthAdjust="spacing" textLength="87.7461" x="2433.627" y="50.6982">stac_catalog</text><rect fill="#F1F1F1" height="12" style="stroke:#181818;stroke-width:1.5;" width="12" x="2471.5" y="66"/></g><g class="entity" data-entity="my_super_stage_out_s3_catalog_output" data-source-line="150" data-uid="ent0063" id="entity_my_super_stage_out_s3_catalog_output"><text fill="#000000" font-family="sans-serif" font-size="14" lengthAdjust="spacing" textLength="128.0645" x="2356.4678" y="294.9951">s3_catalog_output</text><rect fill="#F1F1F1" height="12" style="stroke:#181818;stroke-width:1.5;" width="12" x="2414.5" y="270"/></g><!--link main_item to main_stage_in_0_reference--><g class="link" data-entity-1="main_item" data-entity-2="main_stage_in_0_reference" data-source-line="36" data-uid="lnk17" id="link_main_item_main_stage_in_0_reference"><path d="M253,78.25 C253,92.57 253,126.5 253,126.5 C253,126.5 1120,126.5 1120,126.5 C1120,126.5 1120,153.81 1120,167.86" fill="none" id="main_item-to-main_stage_in_0_reference" style="stroke:#181818;stroke-width:1;stroke-dasharray:7.0,7.0;"/><polygon fill="#181818" points="1120,173.86,1124,164.86,1120,168.86,1116,164.86,1120,173.86" style="stroke:#181818;stroke-width:1;"/></g><!--link main_another_input to main_stage_in_0_another_input--><g class="link" data-entity-1="main_another_input" data-entity-2="main_stage_in_0_another_input" data-source-line="39" data-uid="lnk19" id="link_main_another_input_main_stage_in_0_another_input"><path d="M175,78.2 C175,99.22 175,166.5 175,166.5 C175,166.5 1007.74,166.5 1020.84,166.5" fill="none" id="main_another_input-to-main_stage_in_0_another_input" style="stroke:#181818;stroke-width:1;stroke-dasharray:7.0,7.0;"/><polygon fill="#181818" points="1026.84,166.5,1017.84,162.5,1021.84,166.5,1017.84,170.5,1026.84,166.5" style="stroke:#181818;stroke-width:1;"/></g><!--link main_aoi to main_app_aoi--><g class="link" data-entity-1="main_aoi" data-entity-2="main_app_aoi" data-source-line="50" data-uid="lnk23" id="link_main_aoi_main_app_aoi"><path d="M899,78.19 C899,126.88 899,446.5 899,446.5 C899,446.5 1152.5,446.5 1152.5,446.5 C1152.5,446.5 1152.5,480.32 1152.5,495.88" fill="none" id="main_aoi-to-main_app_aoi" style="stroke:#181818;stroke-width:1;stroke-dasharray:7.0,7.0;"/><polygon fill="#181818" points="1152.5,501.88,1156.5,492.88,1152.5,496.88,1148.5,492.88,1152.5,501.88" style="stroke:#181818;stroke-width:1;"/></g><!--link main_epsg to main_app_epsg--><g class="link" data-entity-1="main_epsg" data-entity-2="main_app_epsg" data-source-line="53" data-uid="lnk25" id="link_main_epsg_main_app_epsg"><path d="M952.25,72.5 C991.21,72.5 1199,72.5 1199,72.5 C1199,72.5 1199,442.91 1199,495.84" fill="none" id="main_epsg-to-main_app_epsg" style="stroke:#181818;stroke-width:1;stroke-dasharray:7.0,7.0;"/><polygon fill="#181818" points="1199,501.84,1203,492.84,1199,496.84,1195,492.84,1199,501.84" style="stroke:#181818;stroke-width:1;"/></g><!--link main_stage_in_0_staged to main_app_item--><g class="link" data-entity-1="main_stage_in_0_staged" data-entity-2="main_app_item" data-source-line="56" data-uid="lnk27" id="link_main_stage_in_0_staged_main_app_item"><path d="M1105,372.1 C1105,375.69 1105,470.15 1105,495.99" fill="none" id="main_stage_in_0_staged-to-main_app_item" style="stroke:#181818;stroke-width:1;stroke-dasharray:7.0,7.0;"/><polygon fill="#181818" points="1105,501.99,1109,492.99,1105,496.99,1101,492.99,1105,501.99" style="stroke:#181818;stroke-width:1;"/></g><!--link pattern_6_item to pattern_6_step_item--><g class="link" data-entity-1="pattern_6_item" data-entity-2="pattern_6_step_item" data-source-line="99" data-uid="lnk42" id="link_pattern_6_item_pattern_6_step_item"><path d="M1315,514.21 C1315,527.09 1315,555.5 1315,555.5 C1315,555.5 1461,555.5 1461,555.5 C1461,555.5 1461,569.61 1461,579.97" fill="none" id="pattern_6_item-to-pattern_6_step_item" style="stroke:#181818;stroke-width:1;stroke-dasharray:7.0,7.0;"/><polygon fill="#181818" points="1461,585.97,1465,576.97,1461,580.97,1457,576.97,1461,585.97" style="stroke:#181818;stroke-width:1;"/></g><!--link pattern_6_aoi to pattern_6_step_aoi--><g class="link" data-entity-1="pattern_6_aoi" data-entity-2="pattern_6_step_aoi" data-source-line="102" data-uid="lnk44" id="link_pattern_6_aoi_pattern_6_step_aoi"><path d="M1362,514.04 C1362,520.09 1362,528.5 1362,528.5 C1362,528.5 1508,528.5 1508,528.5 C1508,528.5 1508,563.62 1508,579.68" fill="none" id="pattern_6_aoi-to-pattern_6_step_aoi" style="stroke:#181818;stroke-width:1;stroke-dasharray:7.0,7.0;"/><polygon fill="#181818" points="1508,585.68,1512,576.68,1508,580.68,1504,576.68,1508,585.68" style="stroke:#181818;stroke-width:1;"/></g><!--link pattern_6_epsg to pattern_6_step_epsg--><g class="link" data-entity-1="pattern_6_epsg" data-entity-2="pattern_6_step_epsg" data-source-line="105" data-uid="lnk46" id="link_pattern_6_epsg_pattern_6_step_epsg"><path d="M1415.27,508.5 C1443.22,508.5 1555,508.5 1555,508.5 C1555,508.5 1555,560.85 1555,579.99" fill="none" id="pattern_6_epsg-to-pattern_6_step_epsg" style="stroke:#181818;stroke-width:1;stroke-dasharray:7.0,7.0;"/><polygon fill="#181818" points="1555,585.99,1559,576.99,1555,580.99,1551,576.99,1555,585.99" style="stroke:#181818;stroke-width:1;"/></g><!--reverse link main_mean to main_app_mean--><g class="link" data-entity-1="main_mean" data-entity-2="main_app_mean" data-source-line="161" data-uid="lnk65" id="link_main_mean_main_app_mean"><path d="M612,288.21 C612,338.53 612,671.5 612,671.5 C612,671.5 1057.5,671.5 1114.93,671.5" fill="none" id="main_mean-backto-main_app_mean" style="stroke:#181818;stroke-width:1;stroke-dasharray:7.0,7.0;"/><polygon fill="#181818" points="612,282.21,608,291.21,612,287.21,616,291.21,612,282.21" style="stroke:#181818;stroke-width:1;"/></g><!--link main_stage_in_0 to my_asthonishing_stage_in--><g class="link" data-entity-1="main_stage_in_0" data-entity-2="my_asthonishing_stage_in" data-source-line="166" data-uid="lnk66" id="link_main_stage_in_0_my_asthonishing_stage_in"><path d="M1155.3646,276.5 C1155.5741,276.5 1155.7838,276.5 1155.9939,276.5 C1156.414,276.5 1156.8352,276.5 1157.2576,276.5 C1158.1024,276.5 1158.9517,276.5 1159.8054,276.5 C1163.2204,276.5 1166.706,276.5 1170.2534,276.5 C1184.4431,276.5 1199.6213,276.5 1215.2175,276.5 C1230.8138,276.5 1246.8281,276.5 1262.6903,276.5 C1270.6214,276.5 1278.5145,276.5 1286.2982,276.5 C1290.19,276.5 1294.0545,276.5 1297.8828,276.5 C1299.797,276.5 1301.702,276.5 1303.5969,276.5 C1303.7154,276.5 1297.8338,276.5 1297.9521,276.5" fill="none" id="main_stage_in_0-to-my_asthonishing_stage_in" style="stroke:#181818;stroke-width:1;stroke-dasharray:7.0,7.0;"/><polygon fill="#181818" points="1303.9521,276.5,1294.9521,272.5,1298.9521,276.5,1294.9521,280.5,1303.9521,276.5" style="stroke:#181818;stroke-width:1;"/></g><!--link main_app to pattern_6--><g class="link" data-entity-1="main_app" data-entity-2="pattern_6" data-source-line="168" data-uid="lnk67" id="link_main_app_pattern_6"><path d="M1213.4167,592.5 C1214.2317,592.5 1215.0495,592.5 1215.8697,592.5 C1217.5103,592.5 1219.1609,592.5 1220.8199,592.5 C1224.1379,592.5 1227.4895,592.5 1230.8613,592.5 C1244.3481,592.5 1258.1566,592.5 1271.4227,592.5 C1278.0557,592.5 1284.5532,592.5 1290.8071,592.5 C1292.3705,592.5 1293.9188,592.5 1295.4501,592.5 C1295.8329,592.5 1296.2147,592.5 1296.5954,592.5 C1296.6906,592.5 1290.7857,592.5 1290.8807,592.5" fill="none" id="main_app-to-pattern_6" style="stroke:#181818;stroke-width:1;stroke-dasharray:7.0,7.0;"/><polygon fill="#181818" points="1296.8807,592.5,1287.8807,588.5,1291.8807,592.5,1287.8807,596.5,1296.8807,592.5" style="stroke:#181818;stroke-width:1;"/></g><!--reverse link pattern_6_mean to pattern_6_step_mean--><g class="link" data-entity-1="pattern_6_mean" data-entity-2="pattern_6_step_mean" data-source-line="179" data-uid="lnk69" id="link_pattern_6_mean_pattern_6_step_mean"><path d="M1393.04,669.5 C1415.61,669.5 1487.67,669.5 1487.67,669.5 C1487.67,669.5 1487.67,722.31 1487.67,740.46" fill="none" id="pattern_6_mean-backto-pattern_6_step_mean" style="stroke:#181818;stroke-width:1;stroke-dasharray:7.0,7.0;"/><polygon fill="#181818" points="1387.04,669.5,1396.04,673.5,1392.04,669.5,1396.04,665.5,1387.04,669.5" style="stroke:#181818;stroke-width:1;"/></g><!--link pattern_6_step to clt--><g class="link" data-entity-1="pattern_6_step" data-entity-2="clt" data-source-line="184" data-uid="lnk70" id="link_pattern_6_step_clt"><path d="M1569.2108,671.5 C1569.8836,671.5 1570.5601,671.5 1571.24,671.5 C1572.5998,671.5 1573.9732,671.5 1575.3586,671.5 C1586.4416,671.5 1598.2869,671.5 1609.9913,671.5 C1615.8434,671.5 1621.6604,671.5 1627.3292,671.5 C1630.1636,671.5 1632.961,671.5 1635.7072,671.5 C1636.0505,671.5 1636.3929,671.5 1636.7346,671.5 C1636.82,671.5 1630.9054,671.5 1630.9907,671.5" fill="none" id="pattern_6_step-to-clt" style="stroke:#181818;stroke-width:1;stroke-dasharray:7.0,7.0;"/><polygon fill="#181818" points="1636.9907,671.5,1627.9907,667.5,1631.9907,671.5,1627.9907,675.5,1636.9907,671.5" style="stroke:#181818;stroke-width:1;"/></g><!--SRC=[fLOzZ-CW4EtzAr2QhHATjDAMrrnxvKbN8jQUjL5iG80LHQlzxmTUXmy33icbICBmtZ0CRmRKcJ9199dGI1degm34fHvuqpICTu0EVxayVupyWbucGjdB0Nqso7nQFWdEW6bqiFO38WhPF-lqycK_mdWprWDXN0yWiLbjrWwD8tE1oMc0vpIF0g5w3xEZF8vgc3pEZl8uzOhVv_OCGQpEL63CxrWGFGI4rLBOrqLXqhQW53x35TCksELsgkn1GIj11-ZOIpATzoIXfvnXHYRm_C1Oo3dh1ATCurcEGUu3g-T5P3vRsG3nii5sv85VHduRbIbDUZ0wmJ-213jRINOIFa02Qo57mcxMyPmgqAdZ5tRwUOTJg_F0GIfvjt0qLOmWKpE552-aBXl5zrIKyKt2YH21beGeLdPKdqAu6lNRuZJUJ8YwKyaMwghPURIMr6LjrLkigtpdCqbEke1l5rMQjfH4rr-tnlgBJnDXtM_JTlzmFfh-UZqIPLelesgWh3ykKHmBFRU0_LxyYiD9jxFA8Ycmdr1-oLEXw-yBkEGiesIVP7zxcKQiGRBZMowTRd9PQXtXjtkITy0ADNjiXKmzEBwXTXJdAHMj5CI6OqsbtMQYil2uXEA8NUcKA1KfNGXXBucoNLhXaODO255pYG-fj8O_mFf3MOWFD8Dsr3cX6lFYsFpUFIw3gKYuHTrFcaN5kjtPjGMd8jnjV6eM8DSkPfmLMju6TUiBYtbj23QIpwedNS9xx86NeJ_pt4lT_F_ZB-_psQTWwks9Xs7g9FzCZFAjIOjReid8-sBE0ypkHV9wGrcQcFSq40CJ4M-AleckUdIQnUt5u4h0nzLuHl1sFKdQ3zhI2dTS4otayQwzvBfHQDlCPDhI6dZc5jdwsbmQBXXJzG-64TZ-0G00]--></g></svg>