<?xml version="1.0" encoding="UTF-8" standalone="no"?>
<!DOCTYPE svg PUBLIC "-//W3C//DTD SVG 1.1//EN"
 "http://www.w3.org/Graphics/SVG/1.1/DTD/svg11.dtd">
<!-- Generated by graphviz version 2.43.0 (0)
 -->
<!-- Title: G Pages: 1 -->
<svg width="508pt" height="322pt"
 viewBox="0.00 0.00 508.00 322.00" xmlns="http://www.w3.org/2000/svg" xmlns:xlink="http://www.w3.org/1999/xlink">
<g id="graph0" class="graph" transform="scale(1 1) rotate(0) translate(4 318)">
<title>G</title>
<polygon fill="#eeeeee" stroke="transparent" points="-4,4 -4,-318 504,-318 504,4 -4,4"/>
<g id="clust1" class="cluster">
<title>cluster_inputs</title>
<polygon fill="#eeeeee" stroke="black" stroke-dasharray="5,2" points="8,-230 8,-306 492,-306 492,-230 8,-230"/>
<text text-anchor="middle" x="425.5" y="-237.8" font-family="Times,serif" font-size="14.00">Workflow Inputs</text>
</g>
<g id="clust2" class="cluster">
<title>cluster_outputs</title>
<polygon fill="#eeeeee" stroke="black" stroke-dasharray="5,2" points="85,-8 85,-84 230,-84 230,-8 85,-8"/>
<text text-anchor="middle" x="157.5" y="-15.8" font-family="Times,serif" font-size="14.00">Workflow Outputs</text>
</g>
<!-- main/stage_in_0 -->
<g id="node1" class="node">
<title>main/stage_in_0</title>
<polygon fill="lightgoldenrodyellow" stroke="black" points="199.5,-185.5 199.5,-221.5 330.5,-221.5 330.5,-185.5 199.5,-185.5"/>
<text text-anchor="middle" x="265" y="-199.8" font-family="Times,serif" font-size="14.00">main/stage_in_0</text>
</g>
<!-- main/app -->
<g id="node2" class="node">
<title>main/app</title>
<polygon fill="#f3cea1" stroke="black" points="108,-112.5 108,-148.5 206,-148.5 206,-112.5 108,-112.5"/>
<text text-anchor="middle" x="157" y="-126.8" font-family="Times,serif" font-size="14.00">NDVI mean</text>
</g>
<!-- main/stage_in_0&#45;&gt;main/app -->
<g id="edge1" class="edge">
<title>main/stage_in_0&#45;&gt;main/app</title>
<path fill="none" stroke="black" d="M239.13,-185.49C224.94,-176.17 207.16,-164.47 191.77,-154.36"/>
<polygon fill="black" stroke="black" points="193.31,-151.18 183.03,-148.61 189.47,-157.03 193.31,-151.18"/>
</g>
<!-- main/mean -->
<g id="node7" class="node">
<title>main/mean</title>
<polygon fill="#94ddf4" stroke="black" points="109.5,-39.5 109.5,-75.5 204.5,-75.5 204.5,-39.5 109.5,-39.5"/>
<text text-anchor="middle" x="157" y="-53.8" font-family="Times,serif" font-size="14.00">main/mean</text>
</g>
<!-- main/app&#45;&gt;main/mean -->
<g id="edge6" class="edge">
<title>main/app&#45;&gt;main/mean</title>
<path fill="none" stroke="black" d="M157,-112.31C157,-104.29 157,-94.55 157,-85.57"/>
<polygon fill="black" stroke="black" points="160.5,-85.53 157,-75.53 153.5,-85.53 160.5,-85.53"/>
</g>
<!-- main/aoi -->
<g id="node3" class="node">
<title>main/aoi</title>
<polygon fill="#94ddf4" stroke="black" points="16.5,-261.5 16.5,-297.5 93.5,-297.5 93.5,-261.5 16.5,-261.5"/>
<text text-anchor="middle" x="55" y="-275.8" font-family="Times,serif" font-size="14.00">main/aoi</text>
</g>
<!-- main/aoi&#45;&gt;main/app -->
<g id="edge2" class="edge">
<title>main/aoi&#45;&gt;main/app</title>
<path fill="none" stroke="black" d="M66.9,-261.35C84.79,-235.57 118.72,-186.67 139.45,-156.79"/>
<polygon fill="black" stroke="black" points="142.35,-158.75 145.18,-148.54 136.6,-154.76 142.35,-158.75"/>
</g>
<!-- main/epsg -->
<g id="node4" class="node">
<title>main/epsg</title>
<polygon fill="#94ddf4" stroke="black" points="112,-261.5 112,-297.5 202,-297.5 202,-261.5 112,-261.5"/>
<text text-anchor="middle" x="157" y="-275.8" font-family="Times,serif" font-size="14.00">main/epsg</text>
</g>
<!-- main/epsg&#45;&gt;main/app -->
<g id="edge3" class="edge">
<title>main/epsg&#45;&gt;main/app</title>
<path fill="none" stroke="black" d="M157,-261.35C157,-236.12 157,-188.76 157,-158.74"/>
<polygon fill="black" stroke="black" points="160.5,-158.54 157,-148.54 153.5,-158.54 160.5,-158.54"/>
</g>
<!-- main/another_input -->
<g id="node5" class="node">
<title>main/another_input</title>
<polygon fill="#94ddf4" stroke="black" points="328,-261.5 328,-297.5 484,-297.5 484,-261.5 328,-261.5"/>
<text text-anchor="middle" x="406" y="-275.8" font-family="Times,serif" font-size="14.00">main/another_input</text>
</g>
<!-- main/another_input&#45;&gt;main/stage_in_0 -->
<g id="edge4" class="edge">
<title>main/another_input&#45;&gt;main/stage_in_0</title>
<path fill="none" stroke="black" d="M376.47,-261.39C359.76,-251.87 338.38,-239.96 319,-230 316.45,-228.69 313.82,-227.36 311.16,-226.04"/>
<polygon fill="black" stroke="black" points="312.57,-222.84 302.05,-221.59 309.5,-229.13 312.57,-222.84"/>
</g>
<!-- main/item -->
<g id="node6" class="node">
<title>main/item</title>
<polygon fill="#94ddf4" stroke="black" points="220.5,-261.5 220.5,-297.5 309.5,-297.5 309.5,-261.5 220.5,-261.5"/>
<text text-anchor="middle" x="265" y="-275.8" font-family="Times,serif" font-size="14.00">main/item</text>
</g>
<!-- main/item&#45;&gt;main/stage_in_0 -->
<g id="edge5" class="edge">
<title>main/item&#45;&gt;main/stage_in_0</title>
<path fill="none" stroke="black" d="M265,-261.34C265,-252.56 265,-241.66 265,-231.77"/>
<polygon fill="black" stroke="black" points="268.5,-231.57 265,-221.57 261.5,-231.57 268.5,-231.57"/>
</g>
</g>
</svg>
