<?xml version="1.0" encoding="UTF-8" standalone="no"?>
<!DOCTYPE svg PUBLIC "-//W3C//DTD SVG 1.1//EN"
 "http://www.w3.org/Graphics/SVG/1.1/DTD/svg11.dtd">
<!-- Generated by graphviz version 2.43.0 (0)
 -->
<!-- Title: G Pages: 1 -->
<svg width="1569pt" height="395pt"
 viewBox="0.00 0.00 1569.00 395.00" xmlns="http://www.w3.org/2000/svg" xmlns:xlink="http://www.w3.org/1999/xlink">
<g id="graph0" class="graph" transform="scale(1 1) rotate(0) translate(4 391)">
<title>G</title>
<polygon fill="#eeeeee" stroke="transparent" points="-4,4 -4,-391 1565,-391 1565,4 -4,4"/>
<g id="clust1" class="cluster">
<title>cluster_inputs</title>
<polygon fill="#eeeeee" stroke="black" stroke-dasharray="5,2" points="8,-303 8,-379 1553,-379 1553,-303 8,-303"/>
<text text-anchor="middle" x="1486.5" y="-310.8" font-family="Times,serif" font-size="14.00">Workflow Inputs</text>
</g>
<g id="clust2" class="cluster">
<title>cluster_outputs</title>
<polygon fill="#eeeeee" stroke="black" stroke-dasharray="5,2" points="878,-8 878,-84 1091,-84 1091,-8 878,-8"/>
<text text-anchor="middle" x="1018.5" y="-15.8" font-family="Times,serif" font-size="14.00">Workflow Outputs</text>
</g>
<!-- main/stage_in_0 -->
<g id="node1" class="node">
<title>main/stage_in_0</title>
<polygon fill="lightgoldenrodyellow" stroke="black" points="636.5,-258.5 636.5,-294.5 767.5,-294.5 767.5,-258.5 636.5,-258.5"/>
<text text-anchor="middle" x="702" y="-272.8" font-family="Times,serif" font-size="14.00">main/stage_in_0</text>
</g>
<!-- main/app -->
<g id="node2" class="node">
<title>main/app</title>
<polygon fill="#f3cea1" stroke="black" points="610,-185.5 610,-221.5 882,-221.5 882,-185.5 610,-185.5"/>
<text text-anchor="middle" x="746" y="-199.8" font-family="Times,serif" font-size="14.00">NDVI and NDWI vegetation indexes</text>
</g>
<!-- main/stage_in_0&#45;&gt;main/app -->
<g id="edge1" class="edge">
<title>main/stage_in_0&#45;&gt;main/app</title>
<path fill="none" stroke="black" d="M712.65,-258.31C717.89,-249.85 724.32,-239.48 730.13,-230.11"/>
<polygon fill="black" stroke="black" points="733.15,-231.87 735.45,-221.53 727.2,-228.19 733.15,-231.87"/>
</g>
<!-- main/stage_out_0 -->
<g id="node3" class="node">
<title>main/stage_out_0</title>
<polygon fill="lightgoldenrodyellow" stroke="black" points="994.5,-112.5 994.5,-148.5 1135.5,-148.5 1135.5,-112.5 994.5,-112.5"/>
<text text-anchor="middle" x="1065" y="-126.8" font-family="Times,serif" font-size="14.00">main/stage_out_0</text>
</g>
<!-- main/app&#45;&gt;main/stage_out_0 -->
<g id="edge2" class="edge">
<title>main/app&#45;&gt;main/stage_out_0</title>
<path fill="none" stroke="black" d="M822.41,-185.49C871.3,-174.61 934.63,-160.52 984.33,-149.45"/>
<polygon fill="black" stroke="black" points="985.4,-152.8 994.4,-147.21 983.88,-145.97 985.4,-152.8"/>
</g>
<!-- main/stage_out_1 -->
<g id="node4" class="node">
<title>main/stage_out_1</title>
<polygon fill="lightgoldenrodyellow" stroke="black" points="835.5,-112.5 835.5,-148.5 976.5,-148.5 976.5,-112.5 835.5,-112.5"/>
<text text-anchor="middle" x="906" y="-126.8" font-family="Times,serif" font-size="14.00">main/stage_out_1</text>
</g>
<!-- main/app&#45;&gt;main/stage_out_1 -->
<g id="edge3" class="edge">
<title>main/app&#45;&gt;main/stage_out_1</title>
<path fill="none" stroke="black" d="M784.32,-185.49C806.52,-175.64 834.66,-163.16 858.29,-152.67"/>
<polygon fill="black" stroke="black" points="859.71,-155.87 867.43,-148.61 856.87,-149.47 859.71,-155.87"/>
</g>
<!-- main/ndvi -->
<g id="node15" class="node">
<title>main/ndvi</title>
<polygon fill="#94ddf4" stroke="black" points="995.5,-39.5 995.5,-75.5 1082.5,-75.5 1082.5,-39.5 995.5,-39.5"/>
<text text-anchor="middle" x="1039" y="-53.8" font-family="Times,serif" font-size="14.00">main/ndvi</text>
</g>
<!-- main/stage_out_0&#45;&gt;main/ndvi -->
<g id="edge20" class="edge">
<title>main/stage_out_0&#45;&gt;main/ndvi</title>
<path fill="none" stroke="black" d="M1058.71,-112.31C1055.7,-104.12 1052.05,-94.12 1048.7,-84.98"/>
<polygon fill="black" stroke="black" points="1051.96,-83.72 1045.24,-75.53 1045.39,-86.12 1051.96,-83.72"/>
</g>
<!-- main/ndwi -->
<g id="node16" class="node">
<title>main/ndwi</title>
<polygon fill="#94ddf4" stroke="black" points="886.5,-39.5 886.5,-75.5 977.5,-75.5 977.5,-39.5 886.5,-39.5"/>
<text text-anchor="middle" x="932" y="-53.8" font-family="Times,serif" font-size="14.00">main/ndwi</text>
</g>
<!-- main/stage_out_1&#45;&gt;main/ndwi -->
<g id="edge21" class="edge">
<title>main/stage_out_1&#45;&gt;main/ndwi</title>
<path fill="none" stroke="black" d="M912.29,-112.31C915.3,-104.12 918.95,-94.12 922.3,-84.98"/>
<polygon fill="black" stroke="black" points="925.61,-86.12 925.76,-75.53 919.04,-83.72 925.61,-86.12"/>
</g>
<!-- main/aoi -->
<g id="node5" class="node">
<title>main/aoi</title>
<polygon fill="#94ddf4" stroke="black" points="387.5,-334.5 387.5,-370.5 464.5,-370.5 464.5,-334.5 387.5,-334.5"/>
<text text-anchor="middle" x="426" y="-348.8" font-family="Times,serif" font-size="14.00">main/aoi</text>
</g>
<!-- main/aoi&#45;&gt;main/app -->
<g id="edge4" class="edge">
<title>main/aoi&#45;&gt;main/app</title>
<path fill="none" stroke="black" d="M439.6,-334.32C448.48,-324.06 460.83,-311.43 474,-303 532.27,-265.73 606.58,-240.05 662.79,-224.28"/>
<polygon fill="black" stroke="black" points="664,-227.58 672.71,-221.55 662.14,-220.83 664,-227.58"/>
</g>
<!-- main/epsg -->
<g id="node6" class="node">
<title>main/epsg</title>
<polygon fill="#94ddf4" stroke="black" points="765,-334.5 765,-370.5 855,-370.5 855,-334.5 765,-334.5"/>
<text text-anchor="middle" x="810" y="-348.8" font-family="Times,serif" font-size="14.00">main/epsg</text>
</g>
<!-- main/epsg&#45;&gt;main/app -->
<g id="edge5" class="edge">
<title>main/epsg&#45;&gt;main/app</title>
<path fill="none" stroke="black" d="M804.97,-334.23C799.17,-315.18 788.9,-283.79 777,-258 772.77,-248.84 767.47,-239.19 762.45,-230.65"/>
<polygon fill="black" stroke="black" points="765.34,-228.66 757.18,-221.89 759.34,-232.27 765.34,-228.66"/>
</g>
<!-- main/another_input -->
<g id="node7" class="node">
<title>main/another_input</title>
<polygon fill="#94ddf4" stroke="black" points="483,-334.5 483,-370.5 639,-370.5 639,-334.5 483,-334.5"/>
<text text-anchor="middle" x="561" y="-348.8" font-family="Times,serif" font-size="14.00">main/another_input</text>
</g>
<!-- main/another_input&#45;&gt;main/stage_in_0 -->
<g id="edge6" class="edge">
<title>main/another_input&#45;&gt;main/stage_in_0</title>
<path fill="none" stroke="black" d="M590.92,-334.47C607.84,-324.98 629.46,-313.07 649,-303 651.55,-301.68 654.18,-300.35 656.85,-299.02"/>
<polygon fill="black" stroke="black" points="658.53,-302.09 665.95,-294.52 655.43,-295.81 658.53,-302.09"/>
</g>
<!-- main/item -->
<g id="node8" class="node">
<title>main/item</title>
<polygon fill="#94ddf4" stroke="black" points="657.5,-334.5 657.5,-370.5 746.5,-370.5 746.5,-334.5 657.5,-334.5"/>
<text text-anchor="middle" x="702" y="-348.8" font-family="Times,serif" font-size="14.00">main/item</text>
</g>
<!-- main/item&#45;&gt;main/stage_in_0 -->
<g id="edge7" class="edge">
<title>main/item&#45;&gt;main/stage_in_0</title>
<path fill="none" stroke="black" d="M702,-334.34C702,-325.56 702,-314.66 702,-304.77"/>
<polygon fill="black" stroke="black" points="705.5,-304.57 702,-294.57 698.5,-304.57 705.5,-304.57"/>
</g>
<!-- main/aws_access_key_id -->
<g id="node9" class="node">
<title>main/aws_access_key_id</title>
<polygon fill="#94ddf4" stroke="black" points="180.5,-334.5 180.5,-370.5 369.5,-370.5 369.5,-334.5 180.5,-334.5"/>
<text text-anchor="middle" x="275" y="-348.8" font-family="Times,serif" font-size="14.00">main/aws_access_key_id</text>
</g>
<!-- main/aws_access_key_id&#45;&gt;main/stage_out_0 -->
<g id="edge8" class="edge">
<title>main/aws_access_key_id&#45;&gt;main/stage_out_0</title>
<path fill="none" stroke="black" d="M308.53,-334.46C330.55,-323.26 360,-308.27 386,-295 481.61,-246.21 497.94,-214.98 601,-185 762.88,-137.91 814.27,-174.2 984.4,-149.12"/>
<polygon fill="black" stroke="black" points="985.09,-152.55 994.45,-147.59 984.03,-145.63 985.09,-152.55"/>
</g>
<!-- main/aws_access_key_id&#45;&gt;main/stage_out_1 -->
<g id="edge9" class="edge">
<title>main/aws_access_key_id&#45;&gt;main/stage_out_1</title>
<path fill="none" stroke="black" d="M286.6,-334.37C311.36,-299.36 373.2,-219.98 447,-185 512.09,-154.15 711.73,-140.25 825.12,-134.71"/>
<polygon fill="black" stroke="black" points="825.32,-138.2 835.14,-134.23 824.98,-131.21 825.32,-138.2"/>
</g>
<!-- main/aws_secret_access_key -->
<g id="node10" class="node">
<title>main/aws_secret_access_key</title>
<polygon fill="#94ddf4" stroke="black" points="1179,-334.5 1179,-370.5 1399,-370.5 1399,-334.5 1179,-334.5"/>
<text text-anchor="middle" x="1289" y="-348.8" font-family="Times,serif" font-size="14.00">main/aws_secret_access_key</text>
</g>
<!-- main/aws_secret_access_key&#45;&gt;main/stage_out_0 -->
<g id="edge10" class="edge">
<title>main/aws_secret_access_key&#45;&gt;main/stage_out_0</title>
<path fill="none" stroke="black" d="M1271.42,-334.24C1231.84,-295.36 1135.61,-200.85 1089.9,-155.96"/>
<polygon fill="black" stroke="black" points="1092.08,-153.19 1082.5,-148.68 1087.18,-158.19 1092.08,-153.19"/>
</g>
<!-- main/aws_secret_access_key&#45;&gt;main/stage_out_1 -->
<g id="edge11" class="edge">
<title>main/aws_secret_access_key&#45;&gt;main/stage_out_1</title>
<path fill="none" stroke="black" d="M1255.58,-334.49C1232.24,-323.46 1200,-309.91 1170,-303 1143.52,-296.91 1072.34,-307.08 1048,-295 1031.94,-287.03 961.01,-200.2 925.87,-156.43"/>
<polygon fill="black" stroke="black" points="928.52,-154.15 919.54,-148.53 923.06,-158.52 928.52,-154.15"/>
</g>
<!-- main/endpoint_url -->
<g id="node11" class="node">
<title>main/endpoint_url</title>
<polygon fill="#94ddf4" stroke="black" points="16,-334.5 16,-370.5 162,-370.5 162,-334.5 16,-334.5"/>
<text text-anchor="middle" x="89" y="-348.8" font-family="Times,serif" font-size="14.00">main/endpoint_url</text>
</g>
<!-- main/endpoint_url&#45;&gt;main/stage_out_0 -->
<g id="edge12" class="edge">
<title>main/endpoint_url&#45;&gt;main/stage_out_0</title>
<path fill="none" stroke="black" d="M113.35,-334.4C129.35,-323.91 151.11,-310.99 172,-303 188.52,-296.67 193.99,-299.88 211,-295 345.49,-256.38 369.32,-214.97 506,-185 711.7,-139.89 772.46,-178.95 984.26,-149.12"/>
<polygon fill="black" stroke="black" points="985.06,-152.54 994.46,-147.65 984.06,-145.62 985.06,-152.54"/>
</g>
<!-- main/endpoint_url&#45;&gt;main/stage_out_1 -->
<g id="edge13" class="edge">
<title>main/endpoint_url&#45;&gt;main/stage_out_1</title>
<path fill="none" stroke="black" d="M111.88,-334.32C160.01,-299.21 276.51,-219.66 388,-185 467.46,-160.29 700.47,-143.46 825.13,-135.95"/>
<polygon fill="black" stroke="black" points="825.6,-139.42 835.38,-135.33 825.19,-132.44 825.6,-139.42"/>
</g>
<!-- main/region_name -->
<g id="node12" class="node">
<title>main/region_name</title>
<polygon fill="#94ddf4" stroke="black" points="873,-334.5 873,-370.5 1021,-370.5 1021,-334.5 873,-334.5"/>
<text text-anchor="middle" x="947" y="-348.8" font-family="Times,serif" font-size="14.00">main/region_name</text>
</g>
<!-- main/region_name&#45;&gt;main/stage_out_0 -->
<g id="edge14" class="edge">
<title>main/region_name&#45;&gt;main/stage_out_0</title>
<path fill="none" stroke="black" d="M956.26,-334.24C976.85,-295.84 1026.55,-203.18 1050.98,-157.65"/>
<polygon fill="black" stroke="black" points="1054.14,-159.15 1055.78,-148.68 1047.97,-155.84 1054.14,-159.15"/>
</g>
<!-- main/region_name&#45;&gt;main/stage_out_1 -->
<g id="edge15" class="edge">
<title>main/region_name&#45;&gt;main/stage_out_1</title>
<path fill="none" stroke="black" d="M942.82,-334.49C940.14,-323.31 936.67,-308.32 934,-295 924.44,-247.31 915.3,-191.37 910.2,-158.84"/>
<polygon fill="black" stroke="black" points="913.62,-158.08 908.62,-148.74 906.71,-159.16 913.62,-158.08"/>
</g>
<!-- main/s3_bucket -->
<g id="node13" class="node">
<title>main/s3_bucket</title>
<polygon fill="#94ddf4" stroke="black" points="1417,-334.5 1417,-370.5 1545,-370.5 1545,-334.5 1417,-334.5"/>
<text text-anchor="middle" x="1481" y="-348.8" font-family="Times,serif" font-size="14.00">main/s3_bucket</text>
</g>
<!-- main/s3_bucket&#45;&gt;main/stage_out_0 -->
<g id="edge16" class="edge">
<title>main/s3_bucket&#45;&gt;main/stage_out_0</title>
<path fill="none" stroke="black" d="M1456.81,-334.34C1442.82,-324.7 1424.72,-312.69 1408,-303 1305.32,-243.52 1179.35,-183.73 1112.3,-152.9"/>
<polygon fill="black" stroke="black" points="1113.39,-149.55 1102.84,-148.56 1110.47,-155.91 1113.39,-149.55"/>
</g>
<!-- main/s3_bucket&#45;&gt;main/stage_out_1 -->
<g id="edge17" class="edge">
<title>main/s3_bucket&#45;&gt;main/stage_out_1</title>
<path fill="none" stroke="black" d="M1461.08,-334.33C1447.17,-323.38 1427.64,-309.98 1408,-303 1373.08,-290.6 1361.05,-303.6 1325,-295 1182.41,-261 1023.64,-188.95 949.09,-152.93"/>
<polygon fill="black" stroke="black" points="950.52,-149.74 939.99,-148.52 947.46,-156.03 950.52,-149.74"/>
</g>
<!-- main/sub_path -->
<g id="node14" class="node">
<title>main/sub_path</title>
<polygon fill="#94ddf4" stroke="black" points="1039.5,-334.5 1039.5,-370.5 1160.5,-370.5 1160.5,-334.5 1039.5,-334.5"/>
<text text-anchor="middle" x="1100" y="-348.8" font-family="Times,serif" font-size="14.00">main/sub_path</text>
</g>
<!-- main/sub_path&#45;&gt;main/stage_out_0 -->
<g id="edge18" class="edge">
<title>main/sub_path&#45;&gt;main/stage_out_0</title>
<path fill="none" stroke="black" d="M1097.88,-334.43C1094.05,-304.21 1085.5,-239.37 1076,-185 1074.51,-176.46 1072.68,-167.2 1070.94,-158.82"/>
<polygon fill="black" stroke="black" points="1074.32,-157.86 1068.83,-148.8 1067.47,-159.31 1074.32,-157.86"/>
</g>
<!-- main/sub_path&#45;&gt;main/stage_out_1 -->
<g id="edge19" class="edge">
<title>main/sub_path&#45;&gt;main/stage_out_1</title>
<path fill="none" stroke="black" d="M1080.63,-334.33C1067.32,-323.53 1048.74,-310.3 1030,-303 1005.75,-293.55 992.31,-311.27 972,-295 931.28,-262.37 951.17,-233.12 931,-185 927.26,-176.07 922.87,-166.45 918.83,-157.86"/>
<polygon fill="black" stroke="black" points="921.92,-156.21 914.46,-148.69 915.6,-159.22 921.92,-156.21"/>
</g>
</g>
</svg>
